<svg width="94" height="94" viewBox="0 0 94 94" fill="none" xmlns="http://www.w3.org/2000/svg">
<g clip-path="url(#clip0_133_356)">
<path d="M30.1299 28.1714C49.102 33.2554 73.2526 40.3097 76.5898 41.2811C85.3352 43.8341 86.8447 46.0169 80.6481 51.4167C76.1945 55.298 61.7513 68.3982 52.4061 76.2549C46.8641 80.9143 44.1711 79.7576 42.7754 74.5588C42.1047 72.0579 38.7265 59.4238 38.0784 56.579C37.4857 53.985 36.4865 50.6236 41.7442 50.0668C43.616 49.8686 55.7426 48.7328 65.1863 47.8546C66.4245 47.7379 66.5189 45.9178 65.29 45.8134C54.3416 44.8756 39.1566 43.5825 37.2073 43.4374C34.2627 43.2183 31.9908 42.3443 29.635 38.7256C27.854 35.9908 26.2475 33.1628 25.616 32.0691C23.183 27.857 25.3987 26.9042 30.1299 28.1714Z" fill="white"/>
</g>
<defs>
<clipPath id="clip0_133_356">
<rect width="66" height="66" fill="white" transform="translate(42.9326 0.508789) rotate(40)"/>
</clipPath>
</defs>
</svg>
