<svg width="688" height="336" viewBox="0 0 688 336" fill="none" xmlns="http://www.w3.org/2000/svg">
<mask id="mask0_139_425" style="mask-type:alpha" maskUnits="userSpaceOnUse" x="0" y="0" width="688" height="336">
<rect width="688" height="336" fill="#D9D9D9"/>
</mask>
<g mask="url(#mask0_139_425)">
<mask id="path-2-inside-1_139_425" fill="white">
<path d="M691.5 -152C649.543 -152 607.996 -143.736 569.233 -127.68C530.469 -111.623 495.248 -88.0889 465.579 -58.4206C435.911 -28.7523 412.377 6.46912 396.32 45.2327C380.264 83.9962 372 125.543 372 167.5C372 209.457 380.264 251.004 396.32 289.767C412.377 328.531 435.911 363.752 465.579 393.421C495.248 423.089 530.469 446.623 569.233 462.68C607.996 478.736 649.543 487 691.5 487L691.5 167.5L691.5 -152Z"/>
</mask>
<path d="M691.5 -152C649.543 -152 607.996 -143.736 569.233 -127.68C530.469 -111.623 495.248 -88.0889 465.579 -58.4206C435.911 -28.7523 412.377 6.46912 396.32 45.2327C380.264 83.9962 372 125.543 372 167.5C372 209.457 380.264 251.004 396.32 289.767C412.377 328.531 435.911 363.752 465.579 393.421C495.248 423.089 530.469 446.623 569.233 462.68C607.996 478.736 649.543 487 691.5 487L691.5 167.5L691.5 -152Z" fill="#FFBD18" stroke="#EFF2F8" stroke-width="8" mask="url(#path-2-inside-1_139_425)"/>
<mask id="path-3-inside-2_139_425" fill="white">
<path d="M691.5 -152C621.167 -152 552.8 -128.792 497.001 -85.9764C441.202 -43.1605 401.09 16.871 382.887 84.8073C364.683 152.744 369.405 224.788 396.32 289.767C423.236 354.746 470.84 409.029 531.75 444.195L691.5 167.5L691.5 -152Z"/>
</mask>
<path d="M691.5 -152C621.167 -152 552.8 -128.792 497.001 -85.9764C441.202 -43.1605 401.09 16.871 382.887 84.8073C364.683 152.744 369.405 224.788 396.32 289.767C423.236 354.746 470.84 409.029 531.75 444.195L691.5 167.5L691.5 -152Z" fill="#2AABEE" stroke="#EFF2F8" stroke-width="8" mask="url(#path-3-inside-2_139_425)"/>
<mask id="path-4-inside-3_139_425" fill="white">
<path d="M691.5 -152C635.416 -152 580.32 -137.237 531.75 -109.195C483.18 -81.1531 442.847 -40.8201 414.805 7.75001C386.763 56.3201 372 111.416 372 167.5C372 223.584 386.763 278.68 414.805 327.25L691.5 167.5L691.5 -152Z"/>
</mask>
<path d="M691.5 -152C635.416 -152 580.32 -137.237 531.75 -109.195C483.18 -81.1531 442.847 -40.8201 414.805 7.75001C386.763 56.3201 372 111.416 372 167.5C372 223.584 386.763 278.68 414.805 327.25L691.5 167.5L691.5 -152Z" fill="#FFE15F" stroke="#EFF2F8" stroke-width="8" mask="url(#path-4-inside-3_139_425)"/>
<mask id="path-5-inside-4_139_425" fill="white">
<path d="M691.5 -152C649.543 -152 607.996 -143.736 569.233 -127.68C530.469 -111.623 495.248 -88.0889 465.579 -58.4206C435.911 -28.7523 412.377 6.46912 396.32 45.2327C380.264 83.9962 372 125.543 372 167.5L691.5 167.5L691.5 -152Z"/>
</mask>
<path d="M691.5 -152C649.543 -152 607.996 -143.736 569.233 -127.68C530.469 -111.623 495.248 -88.0889 465.579 -58.4206C435.911 -28.7523 412.377 6.46912 396.32 45.2327C380.264 83.9962 372 125.543 372 167.5L691.5 167.5L691.5 -152Z" fill="#FD94D7" stroke="#EFF2F8" stroke-width="8" mask="url(#path-5-inside-4_139_425)"/>
<mask id="path-6-inside-5_139_425" fill="white">
<path d="M691.5 -152C635.416 -152 580.32 -137.237 531.75 -109.195C483.18 -81.1531 442.847 -40.8201 414.805 7.75001L691.5 167.5L691.5 -152Z"/>
</mask>
<path d="M691.5 -152C635.416 -152 580.32 -137.237 531.75 -109.195C483.18 -81.1531 442.847 -40.8201 414.805 7.75001L691.5 167.5L691.5 -152Z" fill="#5570FF" stroke="#EFF2F8" stroke-width="8" mask="url(#path-6-inside-5_139_425)"/>
<mask id="path-7-inside-6_139_425" fill="white">
<path d="M691.5 -152C635.416 -152 580.32 -137.237 531.75 -109.195L691.5 167.5L691.5 -152Z"/>
</mask>
<path d="M691.5 -152C635.416 -152 580.32 -137.237 531.75 -109.195L691.5 167.5L691.5 -152Z" fill="#E6FF55" stroke="#EFF2F8" stroke-width="8" mask="url(#path-7-inside-6_139_425)"/>
</g>
</svg>
