<svg width="32" height="32" viewBox="0 0 32 32" fill="none" xmlns="http://www.w3.org/2000/svg">
<path d="M13.2553 2.88676L14.0521 2.88348H17.9479L18.7459 2.88676L19.745 2.89769L20.2183 2.90535L20.6752 2.91737L21.1157 2.93267L21.5398 2.95016L21.9486 2.97312L22.3421 3.00044L22.7192 3.03324L23.0833 3.06931C24.9852 3.28356 26.2893 3.74265 27.2731 4.72643C28.2568 5.71022 28.7159 7.01318 28.9302 8.91625L28.9674 9.28025L28.9991 9.65846L29.0264 10.052L29.0482 10.4597L29.0756 11.1024L29.0887 11.5506L29.1029 12.2546L29.1127 13.2547L29.1171 14.326L29.116 17.9474L29.1127 18.7453L29.1018 19.7444L29.0942 20.2177L29.0821 20.6746L29.0668 21.1151L29.0493 21.5393L29.0264 21.9481L28.9991 22.3416L28.9663 22.7187L28.9302 23.0827C28.7159 24.9847 28.2568 26.2887 27.2731 27.2725C26.2893 28.2563 24.9863 28.7154 23.0833 28.9297L22.7192 28.9668L22.341 28.9985L21.9475 29.0258L21.5398 29.0477L20.8971 29.075L20.4489 29.0882L19.745 29.1024L18.7448 29.1122L17.6735 29.1166L14.0521 29.1155L13.2542 29.1122L12.2551 29.1013L11.7818 29.0936L11.3249 29.0816L10.8844 29.0663L10.4602 29.0488L10.0514 29.0258L9.65791 28.9985L9.28079 28.9657L8.91679 28.9297C7.01482 28.7154 5.71076 28.2563 4.72698 27.2725C3.7432 26.2887 3.2841 24.9858 3.06985 23.0827L3.03269 22.7187L3.00099 22.3405L2.97366 21.947L2.9518 21.5393L2.92447 20.8965L2.91135 20.4484L2.89714 19.7444L2.88731 18.7442L2.88293 17.673L2.88403 14.0516L2.88731 13.2536L2.89824 12.2546L2.90589 11.7812L2.91791 11.3243L2.93322 10.8838L2.95071 10.4597L2.97366 10.0509L3.00099 9.65737L3.03378 9.28025L3.06985 8.91625C3.2841 7.01427 3.7432 5.71022 4.72698 4.72643C5.71076 3.74265 7.01372 3.28356 8.91679 3.06931L9.28079 3.03214L9.659 3.00044L10.0525 2.97312L10.4602 2.95126L11.103 2.92393L11.5511 2.91081L12.2551 2.8966L13.2553 2.88676ZM10.305 10.862H7.30995C7.45205 17.6828 10.8625 21.7819 16.8417 21.7819H17.1806V17.8796C19.3777 18.0982 21.0392 19.7051 21.706 21.7819H24.8103C23.9577 18.6776 21.7169 16.9614 20.3177 16.3055C21.7169 15.4967 23.6844 13.5291 24.1545 10.862H21.3343C20.7222 13.0263 18.9076 14.9938 17.1806 15.1797V10.862H14.3604V18.4261C12.6114 17.9889 10.4034 15.8683 10.305 10.862Z" fill="#1C1C1C"/>
</svg>
