<svg width="32" height="32" viewBox="0 0 32 32" fill="none" xmlns="http://www.w3.org/2000/svg">
<path d="M13.0342 20.4486L20.7304 16L13.0342 11.5513V20.4486ZM30.1764 8.83764C30.3692 9.5346 30.5026 10.4688 30.5916 11.6551C30.6954 12.8414 30.7399 13.8646 30.7399 14.7544L30.8289 16C30.8289 19.2475 30.5916 21.6349 30.1764 23.1623C29.8057 24.4969 28.9456 25.357 27.611 25.7277C26.914 25.9205 25.6388 26.0539 23.6813 26.1429C21.7536 26.2467 19.989 26.2912 18.3578 26.2912L16 26.3802C9.78671 26.3802 5.91638 26.1429 4.389 25.7277C3.05441 25.357 2.19433 24.4969 1.82361 23.1623C1.63084 22.4654 1.49738 21.5311 1.4084 20.3448C1.3046 19.1585 1.26012 18.1353 1.26012 17.2456L1.17114 16C1.17114 12.7525 1.4084 10.365 1.82361 8.83764C2.19433 7.50305 3.05441 6.64297 4.389 6.27225C5.08596 6.07948 6.36124 5.94602 8.31865 5.85704C10.2464 5.75324 12.011 5.70875 13.6422 5.70875L16 5.61978C22.2133 5.61978 26.0836 5.85704 27.611 6.27225C28.9456 6.64297 29.8057 7.50305 30.1764 8.83764Z" fill="#1C1C1C"/>
</svg>
