<svg width="269" height="63" viewBox="0 0 269 63" fill="none" xmlns="http://www.w3.org/2000/svg">
<path d="M103.932 36.5801V61.2075H95.9785V1.35071H122.705C128.8 1.35071 133.594 3.02425 137.106 6.37983C140.618 9.73542 142.374 13.932 142.374 18.9611C142.374 21.3228 141.918 23.574 140.997 25.6978C140.076 27.8216 138.802 29.699 137.149 31.3131C135.497 32.9272 133.431 34.2099 130.934 35.1529C128.438 36.0958 125.701 36.5716 122.705 36.5716H103.923L103.932 36.5801ZM103.932 29.1468H122.034C125.701 29.1468 128.61 28.2463 130.771 26.4539C132.923 24.6614 134.007 22.1638 134.007 18.9611C134.007 15.7585 132.931 13.2694 130.771 11.4939C128.61 9.70993 125.701 8.82644 122.034 8.82644H103.932V29.1553V29.1468Z" fill="black"/>
<path d="M260.946 7.85807H227.376V62.5415H219.689V0.594727H268.667V62.5415H260.938V7.85807H260.946Z" fill="black"/>
<path d="M17.8574 61.4453C11.2811 61.4453 3.60297 55.3288 3.60297 38.1006C3.60297 26.938 6.26275 17.7378 11.3327 11.222C6.93416 8.52902 2.40649 8.52902 0.332031 8.52902V0.883392C6.89973 0.883392 12.4689 2.55694 16.9535 5.79359C21.662 2.42951 27.4033 0.671014 33.7903 0.671014H33.8333C40.1255 0.671014 45.514 2.38703 49.9039 5.64917C54.466 2.17465 59.7339 0.671014 64.8728 0.671014H65.0793C67.1624 0.662518 72.6627 0.637033 77.156 5.05451C81.0639 8.89431 83.0437 15.0193 83.0437 23.2681V61.3518H75.2967V23.2681C75.2967 17.2111 74.0486 12.7851 71.6901 10.4659C69.4779 8.29116 66.6201 8.29965 65.1138 8.30815H64.8728C61.2575 8.30815 58.0554 9.28509 55.3354 11.154C60.5775 18.273 63.3836 28.8494 63.3836 42.3652C63.3836 50.9708 59.9147 61.0205 50.1277 61.0205C43.5858 61.0205 36.9837 54.5642 36.9837 40.131C36.9837 26.8785 39.9706 17.5169 44.4983 11.2475C41.6663 9.40402 38.1544 8.32514 33.8161 8.32514H33.7817C29.4606 8.32514 25.6818 9.32757 22.4883 11.3239C27.6271 18.2475 30.3213 28.4926 30.3213 41.7365C30.3213 59.5339 21.6017 61.4538 17.8488 61.4538L17.8574 61.4453ZM16.8933 16.6504C13.2522 21.7814 11.3413 29.1043 11.3413 38.1006C11.3413 48.4052 14.6209 53.7996 17.8488 53.7996C21.3349 53.7996 22.5744 47.5642 22.5744 41.728C22.5744 30.6334 20.6635 22.2317 16.8847 16.6504H16.8933ZM49.9986 16.8713C46.5899 22.3336 44.7307 30.2426 44.7307 40.1225C44.7307 48.4137 47.4765 53.3664 50.1277 53.3664C55.5678 53.3664 55.6367 42.4671 55.6367 42.3567C55.6367 33.5047 54.4058 23.6759 49.9986 16.8628V16.8713Z" fill="black"/>
<path d="M208.287 62.3544C201.134 62.3544 195.617 59.7124 191.425 55.7621C186.338 59.6614 180.312 61.6833 173.564 61.6833C167.478 61.6833 162.477 59.6954 158.707 55.7706C151.287 48.0655 151.563 35.5267 151.623 34.1165V0.59466H159.37V34.4053C159.361 34.4988 158.931 44.9393 164.345 50.5376C166.626 52.8993 169.647 54.0461 173.564 54.0461C178.505 54.0461 182.852 52.6274 186.57 49.807C182.042 42.6456 180.08 33.9211 179.701 27.8896C179.52 25.8847 178.393 10.551 184.84 3.58495C187.009 1.24029 189.85 0 193.052 0C195.91 0 198.475 1.0534 200.489 3.04976C204.182 6.71116 206.032 13.6007 205.998 23.5316C205.963 31.9757 203.743 39.9697 199.568 46.6383C198.724 47.9891 197.82 49.2464 196.874 50.4272C199.74 53.0097 203.459 54.7257 208.287 54.7257V62.3714V62.3544ZM193.052 7.64563C192.019 7.64563 191.279 7.97694 190.564 8.7415C187.362 12.2075 186.94 21.9345 187.422 27.2524V27.3629C187.474 27.9915 188.102 36.6226 192.036 44.0218C192.355 43.5631 192.673 43.0874 192.974 42.6032C196.4 37.1323 198.225 30.5316 198.251 23.4891C198.277 16.1068 197.063 10.4745 194.997 8.43568C194.429 7.875 193.852 7.63714 193.043 7.63714L193.052 7.64563Z" fill="black"/>
</svg>
