<svg width="1216" height="456" viewBox="0 0 1216 456" fill="none" xmlns="http://www.w3.org/2000/svg">
<g clip-path="url(#clip0_367_7069)">
<path d="M1486.58 -75.8624C1359.57 -79.4084 1198.38 -64.9837 1138.13 35.2995C1069.5 149.542 1184.32 287.981 1121.89 355.018C1021.64 462.666 662.368 173.594 501.177 297.56C389.068 383.788 481.329 586.311 363.797 675.989C269.338 748.048 106.27 696.222 -25.8633 634.768" stroke="#DFFF0F" stroke-width="38.5087" stroke-miterlimit="10"/>
<path d="M444.659 455.559L431.248 454.213L431.663 450.075C431.825 448.465 432.065 447.812 432.475 447.195C433.226 446.071 434.41 445.455 436.192 445.633C437.897 445.804 439.035 446.809 439.488 448.267C439.709 448.966 439.668 450.143 439.553 451.292L439.395 452.863L444.874 453.413L444.659 455.559ZM437.594 452.682L437.781 450.824C437.873 449.904 437.886 449.383 437.666 448.877C437.415 448.291 436.894 447.89 435.975 447.798C435.055 447.706 434.465 447.995 434.103 448.52C433.787 448.972 433.696 449.485 433.604 450.405L433.418 452.263L437.594 452.682Z" fill="black"/>
<path d="M445.917 443.255L432.537 441.631L432.797 439.491L443.558 440.797L433.639 432.552L433.947 430.01L447.327 431.634L447.067 433.775L436.383 432.478L446.225 440.713L445.917 443.255Z" fill="black"/>
<path d="M449.32 418.173L438.093 416.441L436.966 423.748L448.193 425.48L447.864 427.611L434.544 425.556L436.329 413.986L449.649 416.041L449.32 418.173Z" fill="black"/>
<path d="M452.586 400.92L441.456 398.461L440.301 403.688L438.271 403.239L441.079 390.53L443.064 391.185L441.921 396.355L453.052 398.815L452.586 400.92Z" fill="black"/>
<path d="M454.903 390.963L441.906 387.397L443.006 383.387C443.434 381.827 443.779 381.223 444.286 380.683C445.215 379.7 446.486 379.29 448.212 379.764C449.865 380.217 450.819 381.397 451.023 382.91C451.123 383.637 450.887 384.79 450.581 385.904L450.163 387.427L455.474 388.883L454.903 390.963ZM448.418 386.948L448.912 385.147C449.156 384.255 449.257 383.744 449.124 383.208C448.975 382.588 448.528 382.106 447.637 381.862C446.746 381.617 446.115 381.804 445.671 382.261C445.283 382.654 445.109 383.145 444.864 384.036L444.37 385.837L448.418 386.948Z" fill="black"/>
<path d="M458.194 379.185L445.446 374.808L446.147 372.768L456.399 376.288L448.417 366.158L449.248 363.736L461.996 368.112L461.295 370.152L451.116 366.657L459.026 376.763L458.194 379.185Z" fill="black"/>
<path d="M467.236 355.766L456.839 351.187L453.859 357.954L464.256 362.532L463.386 364.506L451.052 359.073L455.77 348.36L468.105 353.792L467.236 355.766Z" fill="black"/>
<path d="M475.408 340.606L465.732 334.581L462.903 339.125L461.137 338.026L468.017 326.977L469.671 328.256L466.872 332.75L476.548 338.776L475.408 340.606Z" fill="black"/>
<path d="M480.94 332.149L470.23 323.966L472.755 320.661C473.737 319.376 474.284 318.946 474.957 318.636C476.187 318.073 477.518 318.17 478.941 319.257C480.303 320.297 480.744 321.749 480.365 323.228C480.186 323.939 479.534 324.919 478.832 325.837L477.874 327.092L482.25 330.435L480.94 332.149ZM476.436 325.993L477.57 324.509C478.131 323.774 478.416 323.338 478.494 322.792C478.588 322.161 478.355 321.547 477.62 320.986C476.886 320.425 476.232 320.361 475.648 320.618C475.141 320.836 474.795 321.226 474.234 321.961L473.1 323.445L476.436 325.993Z" fill="black"/>
<path d="M488.318 322.657L478.516 313.406L479.996 311.838L487.88 319.278L484.793 306.755L486.55 304.892L496.353 314.142L494.873 315.711L487.045 308.324L490.076 320.794L488.318 322.657Z" fill="black"/>
<path d="M506.412 305.427L499.114 296.721L493.448 301.47L500.745 310.176L499.092 311.562L490.434 301.232L499.406 293.712L508.064 304.041L506.412 305.427Z" fill="black"/>
<path d="M520.516 295.674L514.68 285.883L510.082 288.624L509.017 286.838L520.197 280.173L521.08 282.068L516.532 284.779L522.369 294.57L520.516 295.674Z" fill="black"/>
<path d="M529.269 290.717L523.482 278.545L527.238 276.759C528.698 276.064 529.381 275.931 530.121 275.963C531.472 276.024 532.613 276.719 533.382 278.336C534.117 279.884 533.847 281.377 532.834 282.519C532.349 283.07 531.321 283.643 530.278 284.14L528.852 284.818L531.217 289.791L529.269 290.717ZM528.075 283.183L529.762 282.381C530.596 281.984 531.049 281.726 531.368 281.276C531.74 280.758 531.813 280.105 531.417 279.27C531.02 278.436 530.467 278.08 529.83 278.042C529.28 278.005 528.794 278.193 527.959 278.59L526.273 279.392L528.075 283.183Z" fill="black"/>
<path d="M540.296 285.593L535.676 272.932L537.701 272.192L541.418 282.376L544.267 269.796L546.673 268.918L551.293 281.579L549.268 282.319L545.578 272.208L542.702 284.715L540.296 285.593Z" fill="black"/>
<path d="M564.174 278.067L561.33 267.069L554.171 268.92L557.016 279.918L554.928 280.458L551.553 267.409L562.887 264.478L566.262 277.527L564.174 278.067Z" fill="black"/>
<path d="M581.159 274.946L579.643 263.649L574.338 264.36L574.062 262.299L586.962 260.569L587.029 262.658L581.781 263.362L583.296 274.659L581.159 274.946Z" fill="black"/>
<path d="M591.319 273.751L590.361 260.307L594.509 260.012C596.122 259.897 596.807 260.021 597.484 260.321C598.72 260.869 599.53 261.931 599.657 263.717C599.779 265.427 598.983 266.719 597.624 267.414C596.972 267.75 595.806 267.911 594.654 267.993L593.079 268.105L593.47 273.598L591.319 273.751ZM592.95 266.3L594.813 266.167C595.735 266.101 596.251 266.026 596.711 265.723C597.247 265.376 597.552 264.794 597.487 263.872C597.421 262.95 597.036 262.418 596.457 262.15C595.957 261.916 595.436 261.914 594.514 261.98L592.651 262.113L592.95 266.3Z" fill="black"/>
<path d="M603.54 272.961L603.351 259.484L605.508 259.454L605.659 270.293L612.496 259.356L615.057 259.32L615.245 272.797L613.089 272.827L612.939 262.065L606.1 272.925L603.54 272.961Z" fill="black"/>
<path d="M628.778 273.258L629.258 261.908L621.871 261.596L621.391 272.946L619.237 272.855L619.806 259.389L631.502 259.883L630.933 273.349L628.778 273.258Z" fill="black"/>
<path d="M646.189 274.688L647.424 263.356L642.102 262.776L642.328 260.709L655.267 262.119L654.831 264.164L649.567 263.59L648.332 274.921L646.189 274.688Z" fill="black"/>
<path d="M656.469 275.904L658.38 262.562L662.497 263.152C664.098 263.381 664.74 263.648 665.339 264.084C666.431 264.882 666.997 266.092 666.743 267.864C666.5 269.561 665.449 270.655 663.973 271.046C663.265 271.237 662.091 271.146 660.947 270.983L659.384 270.759L658.604 276.21L656.469 275.904ZM659.641 268.967L661.49 269.232C662.405 269.363 662.925 269.399 663.439 269.2C664.036 268.974 664.458 268.471 664.589 267.556C664.72 266.641 664.456 266.039 663.947 265.655C663.509 265.32 663 265.208 662.085 265.077L660.236 264.812L659.641 268.967Z" fill="black"/>
<path d="M668.712 277.69L671.036 264.414L673.16 264.786L671.291 275.464L680.045 265.991L682.567 266.433L680.243 279.709L678.119 279.337L679.975 268.735L671.234 278.132L668.712 277.69Z" fill="black"/>
<path d="M693.549 282.415L695.845 271.289L688.604 269.795L686.308 280.92L684.196 280.485L686.92 267.285L698.385 269.651L695.661 282.85L693.549 282.415Z" fill="black"/>
<path d="M710.749 286.352L713.454 275.279L708.254 274.008L708.748 271.988L721.392 275.077L720.693 277.047L715.549 275.79L712.843 286.863L710.749 286.352Z" fill="black"/>
<path d="M720.829 288.852L724.265 275.82L728.287 276.88C729.851 277.292 730.458 277.632 731.003 278.134C731.995 279.052 732.418 280.319 731.961 282.05C731.525 283.707 730.354 284.673 728.843 284.892C728.117 284.999 726.962 284.774 725.845 284.48L724.318 284.077L722.914 289.402L720.829 288.852ZM724.78 282.327L726.586 282.803C727.479 283.039 727.992 283.134 728.526 282.996C729.144 282.841 729.622 282.389 729.858 281.496C730.093 280.602 729.9 279.974 729.439 279.533C729.042 279.15 728.549 278.98 727.656 278.745L725.85 278.268L724.78 282.327Z" fill="black"/>
<path d="M732.812 292.04L736.466 279.067L738.542 279.651L735.603 290.086L745.269 281.546L747.734 282.24L744.08 295.214L742.005 294.629L744.923 284.269L735.277 292.734L732.812 292.04Z" fill="black"/>
<path d="M757.2 299.102L760.455 288.218L753.371 286.099L750.116 296.983L748.05 296.365L751.912 283.452L763.128 286.807L759.266 299.72L757.2 299.102Z" fill="black"/>
<path d="M774.094 304.371L777.564 293.513L772.465 291.884L773.098 289.903L785.496 293.865L784.662 295.781L779.618 294.17L776.149 305.028L774.094 304.371Z" fill="black"/>
<path d="M784.019 307.559L788.235 294.757L792.185 296.059C793.721 296.564 794.307 296.94 794.821 297.474C795.756 298.451 796.101 299.74 795.541 301.441C795.005 303.069 793.778 303.962 792.256 304.089C791.526 304.153 790.386 303.859 789.289 303.497L787.789 303.003L786.067 308.234L784.019 307.559ZM788.356 301.284L790.13 301.868C791.007 302.158 791.513 302.284 792.055 302.178C792.681 302.06 793.185 301.638 793.474 300.761C793.764 299.883 793.609 299.244 793.175 298.777C792.802 298.37 792.321 298.171 791.443 297.882L789.669 297.297L788.356 301.284Z" fill="black"/>
<path d="M795.851 311.47L800.168 298.702L802.211 299.392L798.739 309.662L808.832 301.631L811.258 302.451L806.941 315.219L804.898 314.529L808.346 304.332L798.277 312.29L795.851 311.47Z" fill="black"/>
<path d="M819.871 319.687L823.583 308.95L816.595 306.535L812.883 317.271L810.845 316.567L815.249 303.828L826.313 307.653L821.91 320.391L819.871 319.687Z" fill="black"/>
<path d="M836.656 325.553L840.449 314.804L835.402 313.023L836.094 311.062L848.368 315.394L847.476 317.284L842.483 315.522L838.689 326.271L836.656 325.553Z" fill="black"/>
<path d="M846.536 329.047L851.046 316.346L854.965 317.737C856.489 318.278 857.066 318.667 857.567 319.213C858.479 320.211 858.795 321.508 858.196 323.196C857.623 324.811 856.376 325.676 854.851 325.768C854.12 325.814 852.987 325.494 851.898 325.107L850.41 324.579L848.568 329.768L846.536 329.047ZM851.016 322.873L852.776 323.498C853.647 323.808 854.15 323.945 854.694 323.852C855.323 323.749 855.836 323.339 856.146 322.468C856.455 321.597 856.315 320.955 855.892 320.477C855.529 320.062 855.052 319.852 854.181 319.543L852.421 318.918L851.016 322.873Z" fill="black"/>
<path d="M858.293 333.235L862.813 320.537L864.844 321.26L861.21 331.473L871.429 323.604L873.842 324.462L869.323 337.16L867.291 336.437L870.9 326.297L860.706 334.094L858.293 333.235Z" fill="black"/>
<path d="M882.254 341.751L886.05 331.044L879.081 328.574L875.285 339.281L873.253 338.56L877.756 325.857L888.79 329.769L884.287 342.472L882.254 341.751Z" fill="black"/>
<path d="M899.05 347.641L902.798 336.877L897.743 335.116L898.427 333.153L910.719 337.433L909.835 339.327L904.835 337.586L901.086 348.35L899.05 347.641Z" fill="black"/>
<path d="M908.92 351.075L913.281 338.322L917.216 339.668C918.747 340.191 919.328 340.573 919.836 341.113C920.759 342.101 921.09 343.394 920.511 345.088C919.956 346.71 918.72 347.589 917.197 347.699C916.465 347.754 915.329 347.447 914.236 347.073L912.742 346.562L910.96 351.773L908.92 351.075ZM913.328 344.85L915.095 345.454C915.97 345.753 916.474 345.885 917.017 345.786C917.645 345.675 918.153 345.259 918.452 344.384C918.751 343.51 918.604 342.869 918.175 342.397C917.807 341.986 917.328 341.782 916.453 341.483L914.686 340.878L913.328 344.85Z" fill="black"/>
<path d="M920.675 355.091L924.936 342.304L926.982 342.986L923.555 353.27L933.613 345.195L936.042 346.005L931.781 358.792L929.735 358.11L933.138 347.899L923.104 355.9L920.675 355.091Z" fill="black"/>
<path d="M944.866 363.006L948.329 352.187L941.288 349.933L937.824 360.752L935.771 360.095L939.88 347.258L951.029 350.827L946.92 363.664L944.866 363.006Z" fill="black"/>
<path d="M961.83 368.205L965.056 357.273L959.922 355.758L960.511 353.763L972.995 357.447L972.203 359.381L967.124 357.883L963.899 368.815L961.83 368.205Z" fill="black"/>
<path d="M971.842 371.118L975.424 358.125L979.433 359.23C980.993 359.66 981.596 360.006 982.135 360.514C983.117 361.444 983.526 362.715 983.05 364.441C982.595 366.093 981.413 367.046 979.9 367.248C979.173 367.347 978.021 367.109 976.907 366.802L975.385 366.383L973.921 371.691L971.842 371.118ZM975.866 364.638L977.666 365.134C978.557 365.38 979.069 365.481 979.604 365.349C980.224 365.2 980.707 364.754 980.953 363.863C981.198 362.972 981.012 362.341 980.556 361.896C980.163 361.508 979.673 361.333 978.782 361.087L976.981 360.591L975.866 364.638Z" fill="black"/>
<path d="M983.795 374.387L987.073 361.314L989.165 361.838L986.528 372.353L995.944 363.538L998.428 364.161L995.15 377.235L993.058 376.71L995.676 366.27L986.278 375.01L983.795 374.387Z" fill="black"/>
<path d="M1008.5 380.206L1010.91 369.103L1003.68 367.538L1001.28 378.641L999.169 378.185L1002.02 365.012L1013.46 367.49L1010.61 380.663L1008.5 380.206Z" fill="black"/>
<path d="M1025.98 383.385L1027.7 372.116L1022.41 371.311L1022.72 369.255L1035.59 371.212L1035.06 373.236L1029.83 372.44L1028.11 383.709L1025.98 383.385Z" fill="black"/>
<path d="M1036.77 384.889L1038.1 371.477L1042.24 371.889C1043.85 372.049 1044.51 372.288 1045.12 372.698C1046.25 373.448 1046.87 374.632 1046.69 376.414C1046.52 378.119 1045.51 379.257 1044.06 379.712C1043.36 379.933 1042.18 379.893 1041.03 379.779L1039.46 379.623L1038.92 385.102L1036.77 384.889ZM1039.64 377.822L1041.5 378.006C1042.42 378.098 1042.94 378.111 1043.45 377.89C1044.03 377.639 1044.43 377.118 1044.52 376.198C1044.61 375.279 1044.32 374.689 1043.8 374.327C1043.35 374.011 1042.83 373.921 1041.91 373.83L1040.06 373.645L1039.64 377.822Z" fill="black"/>
<path d="M1049.84 386.11L1050.23 372.638L1052.38 372.7L1052.07 383.536L1059.37 372.901L1061.93 372.975L1061.54 386.447L1059.39 386.385L1059.7 375.627L1052.4 386.184L1049.84 386.11Z" fill="black"/>
<path d="M1076.21 385.622L1075.33 374.296L1067.95 374.868L1068.83 386.194L1066.68 386.361L1065.64 372.924L1077.31 372.017L1078.36 385.455L1076.21 385.622Z" fill="black"/>
<path d="M1095.59 381.785L1092.18 370.907L1087.07 372.507L1086.45 370.522L1098.87 366.632L1099.29 368.68L1094.24 370.262L1097.64 381.14L1095.59 381.785Z" fill="black"/>
<path d="M1107.01 377.567L1100.62 365.698L1104.28 363.728C1105.71 362.961 1106.38 362.795 1107.12 362.79C1108.48 362.784 1109.65 363.421 1110.5 364.997C1111.31 366.507 1111.11 368.011 1110.16 369.203C1109.7 369.777 1108.7 370.401 1107.69 370.948L1106.3 371.696L1108.9 376.546L1107.01 377.567ZM1105.44 370.102L1107.08 369.217C1107.9 368.78 1108.34 368.499 1108.63 368.034C1108.98 367.498 1109.02 366.842 1108.58 366.028C1108.14 365.214 1107.57 364.887 1106.94 364.88C1106.38 364.871 1105.91 365.083 1105.09 365.521L1103.45 366.406L1105.44 370.102Z" fill="black"/>
<path d="M1119.56 370.239L1110.64 360.136L1112.26 358.709L1119.43 366.834L1117.5 354.082L1119.41 352.387L1128.34 362.489L1126.72 363.917L1119.6 355.849L1121.48 368.543L1119.56 370.239Z" fill="black"/>
<path d="M1137.93 349.595L1128.45 343.33L1124.37 349.498L1133.85 355.763L1132.66 357.562L1121.42 350.129L1127.87 340.363L1139.12 347.796L1137.93 349.595Z" fill="black"/>
<path d="M1145.58 330.168L1134.48 327.583L1133.27 332.796L1131.24 332.324L1134.19 319.647L1136.17 320.325L1134.97 325.482L1146.07 328.068L1145.58 330.168Z" fill="black"/>
<path d="M1147.71 318.526L1134.27 317.503L1134.58 313.356C1134.7 311.744 1134.93 311.085 1135.32 310.458C1136.05 309.316 1137.22 308.671 1139 308.807C1140.71 308.937 1141.87 309.914 1142.36 311.361C1142.6 312.055 1142.59 313.231 1142.5 314.383L1142.38 315.958L1147.87 316.375L1147.71 318.526ZM1140.57 315.82L1140.72 313.958C1140.79 313.037 1140.79 312.515 1140.55 312.015C1140.29 311.435 1139.76 311.047 1138.84 310.977C1137.92 310.907 1137.33 311.21 1136.98 311.743C1136.68 312.203 1136.6 312.718 1136.53 313.64L1136.39 315.502L1140.57 315.82Z" fill="black"/>
<path d="M1148.5 305.089L1135.03 305.569L1134.95 303.413L1145.78 303.028L1134.7 296.429L1134.61 293.869L1148.08 293.39L1148.16 295.545L1137.4 295.928L1148.41 302.53L1148.5 305.089Z" fill="black"/>
<path d="M1146.53 279.013L1135.25 280.348L1136.12 287.69L1147.4 286.355L1147.65 288.497L1134.27 290.081L1132.89 278.455L1146.28 276.871L1146.53 279.013Z" fill="black"/>
<path d="M1143.66 261.262L1132.45 263.337L1133.43 268.6L1131.38 268.979L1129.02 256.18L1131.1 256.01L1132.06 261.216L1143.27 259.141L1143.66 261.262Z" fill="black"/>
<path d="M1141.71 251.057L1128.51 253.777L1127.67 249.703C1127.34 248.119 1127.38 247.424 1127.58 246.713C1127.97 245.416 1128.91 244.474 1130.67 244.113C1132.34 243.767 1133.73 244.386 1134.6 245.642C1135.02 246.244 1135.33 247.378 1135.56 248.51L1135.88 250.056L1141.27 248.945L1141.71 251.057ZM1134.11 250.422L1133.73 248.592C1133.55 247.687 1133.4 247.186 1133.04 246.769C1132.63 246.284 1132.01 246.057 1131.11 246.244C1130.2 246.43 1129.72 246.882 1129.53 247.491C1129.37 248.017 1129.43 248.534 1129.62 249.439L1130 251.268L1134.11 250.422Z" fill="black"/>
<path d="M1139.17 238.86L1126 241.703L1125.54 239.595L1136.14 237.308L1124.07 232.763L1123.53 230.26L1136.7 227.417L1137.16 229.525L1126.64 231.795L1138.63 236.357L1139.17 238.86Z" fill="black"/>
<path d="M1133.8 213.975L1122.69 216.358L1124.24 223.587L1135.35 221.204L1135.8 223.312L1122.63 226.14L1120.17 214.694L1133.35 211.866L1133.8 213.975Z" fill="black"/>
<path d="M1130.25 196.65L1119.06 198.81L1120.07 204.065L1118.03 204.459L1115.56 191.679L1117.65 191.493L1118.65 196.692L1129.84 194.533L1130.25 196.65Z" fill="black"/>
<path d="M1128.33 186.441L1115.04 188.695L1114.35 184.595C1114.07 183.001 1114.13 182.307 1114.36 181.604C1114.79 180.321 1115.77 179.412 1117.54 179.113C1119.23 178.826 1120.59 179.493 1121.41 180.779C1121.81 181.395 1122.08 182.54 1122.27 183.679L1122.54 185.236L1127.97 184.315L1128.33 186.441ZM1120.75 185.539L1120.44 183.697C1120.29 182.786 1120.16 182.28 1119.82 181.851C1119.42 181.352 1118.81 181.103 1117.9 181.258C1116.99 181.413 1116.5 181.848 1116.29 182.45C1116.1 182.969 1116.15 183.488 1116.3 184.399L1116.62 186.241L1120.75 185.539Z" fill="black"/>
<path d="M1126.31 174.277L1112.95 176.108L1112.66 173.972L1123.4 172.499L1111.71 167.047L1111.36 164.51L1124.71 162.679L1125.01 164.815L1114.34 166.278L1125.96 171.74L1126.31 174.277Z" fill="black"/>
<path d="M1123.38 149.194L1112.07 150.224L1112.74 157.587L1124.05 156.557L1124.24 158.705L1110.82 159.926L1109.76 148.268L1123.18 147.046L1123.38 149.194Z" fill="black"/>
<path d="M1122.59 131.775L1111.19 131.856L1111.23 137.209L1109.15 137.224L1109.06 124.208L1111.14 124.405L1111.18 129.7L1122.58 129.618L1122.59 131.775Z" fill="black"/>
<path d="M1122.65 121.535L1109.19 120.81L1109.42 116.657C1109.5 115.042 1109.71 114.379 1110.09 113.744C1110.79 112.586 1111.95 111.915 1113.74 112.011C1115.45 112.103 1116.63 113.054 1117.15 114.49C1117.4 115.178 1117.42 116.355 1117.35 117.509L1117.27 119.085L1122.77 119.381L1122.65 121.535ZM1115.46 118.988L1115.56 117.123C1115.61 116.2 1115.6 115.679 1115.36 115.184C1115.08 114.61 1114.54 114.234 1113.62 114.184C1112.7 114.134 1112.12 114.45 1111.78 114.991C1111.49 115.458 1111.42 115.975 1111.37 116.898L1111.27 118.762L1115.46 118.988Z" fill="black"/>
<path d="M1123.39 109.358L1110.02 107.661L1110.29 105.522L1121.05 106.886L1111.17 98.5883L1111.49 96.0478L1124.87 97.7441L1124.59 99.8834L1113.92 98.5288L1123.71 106.817L1123.39 109.358Z" fill="black"/>
<path d="M1127.55 84.6563L1116.45 82.2208L1114.87 89.4425L1125.96 91.8781L1125.5 93.9844L1112.33 91.0948L1114.84 79.6603L1128.01 82.55L1127.55 84.6563Z" fill="black"/>
<path d="M1132.56 68.1689L1121.88 64.1957L1120.01 69.2127L1118.06 68.4879L1122.6 56.2882L1124.47 57.2116L1122.63 62.1745L1133.31 66.1477L1132.56 68.1689Z" fill="black"/>
<path d="M1136.3 58.739L1124.12 52.9621L1125.91 49.2045C1126.6 47.7433 1127.05 47.2087 1127.64 46.7658C1128.72 45.9596 1130.05 45.7772 1131.67 46.5447C1133.21 47.2792 1133.95 48.6076 1133.88 50.1333C1133.86 50.866 1133.42 51.9602 1132.93 53.0039L1132.25 54.4304L1137.23 56.7907L1136.3 58.739ZM1130.62 53.6546L1131.42 51.9672C1131.81 51.1322 1132 50.646 1131.96 50.0956C1131.92 49.459 1131.57 48.9066 1130.73 48.5104C1129.9 48.1143 1129.24 48.1881 1128.73 48.5605C1128.28 48.8799 1128.02 49.3331 1127.62 50.1681L1126.82 51.8555L1130.62 53.6546Z" fill="black"/>
<path d="M1141.71 47.8096L1129.98 41.1665L1131.04 39.2902L1140.47 44.6331L1134.49 33.2088L1135.75 30.9806L1147.48 37.6236L1146.41 39.5L1137.05 34.195L1142.97 45.5814L1141.71 47.8096Z" fill="black"/>
<path d="M1155.25 26.8934L1146.08 20.1856L1141.71 26.1528L1150.88 32.8605L1149.61 34.601L1138.73 26.6426L1145.64 17.1946L1156.52 25.1529L1155.25 26.8934Z" fill="black"/>
<path d="M1166.48 13.82L1158.28 5.91195L1154.56 9.76691L1153.06 8.32421L1162.09 -1.04972L1163.44 0.545508L1159.77 4.35887L1167.98 12.267L1166.48 13.82Z" fill="black"/>
<path d="M1173.66 6.64247L1164.69 -3.41607L1167.8 -6.18435C1169 -7.2609 1169.62 -7.58014 1170.34 -7.75724C1171.65 -8.07765 1172.94 -7.73124 1174.13 -6.3949C1175.28 -5.11602 1175.43 -3.60685 1174.78 -2.22582C1174.47 -1.56172 1173.65 -0.722455 1172.78 0.0465117L1171.61 1.09743L1175.27 5.20706L1173.66 6.64247ZM1170.4 -0.253285L1171.8 -1.49645C1172.49 -2.11162 1172.85 -2.4864 1173.03 -3.00797C1173.24 -3.60955 1173.13 -4.25695 1172.51 -4.94668C1171.9 -5.6364 1171.27 -5.82242 1170.64 -5.68067C1170.11 -5.56143 1169.69 -5.24414 1169 -4.62896L1167.61 -3.3858L1170.4 -0.253285Z" fill="black"/>
</g>
<defs>
<clipPath id="clip0_367_7069">
<rect width="1527" height="825.884" fill="white" transform="translate(-34 -110.582)"/>
</clipPath>
</defs>
</svg>
