<svg width="171" height="40" viewBox="0 0 171 40" fill="none" xmlns="http://www.w3.org/2000/svg">
<g clip-path="url(#clip0_314_2966)">
<path d="M66.0579 23.4305V39.0669H61.002V1.06262H77.992C81.866 1.06262 84.9138 2.12519 87.1463 4.25572C89.3788 6.38625 90.4951 9.05076 90.4951 12.2439C90.4951 13.7433 90.2051 15.1727 89.6196 16.5211C89.0341 17.8695 88.2243 19.0615 87.1737 20.0864C86.1231 21.1112 84.8099 21.9256 83.223 22.5243C81.6362 23.123 79.8962 23.4251 77.992 23.4251H66.0524L66.0579 23.4305ZM66.0579 18.7109H77.5652C79.8962 18.7109 81.7456 18.1392 83.1191 17.0011C84.487 15.8631 85.1765 14.2773 85.1765 12.2439C85.1765 10.2104 84.4925 8.63004 83.1191 7.50275C81.7456 6.37006 79.8962 5.80912 77.5652 5.80912H66.0579V18.7163V18.7109Z" fill="black"/>
<path d="M165.871 5.19429H144.531V39.9139H139.645V0.582642H170.779V39.9139H165.866V5.19429H165.871Z" fill="black"/>
<path d="M11.3418 39.2179C7.16133 39.2179 2.28047 35.3344 2.28047 24.3959C2.28047 17.3085 3.97126 11.4671 7.19416 7.33006C4.39806 5.62024 1.51988 5.62024 0.201172 5.62024V0.765875C4.37617 0.765875 7.91645 1.82844 10.7673 3.88346C13.7604 1.74754 17.4101 0.631031 21.4702 0.631031H21.4975C25.4974 0.631031 28.9228 1.72057 31.7134 3.79176C34.6135 1.58572 37.9622 0.631031 41.2289 0.631031H41.3602C42.6844 0.625638 46.1809 0.609457 49.0372 3.4142C51.5214 5.85217 52.7799 9.74106 52.7799 14.9784V39.1585H47.8553V14.9784C47.8553 11.1326 47.0619 8.32251 45.5626 6.85002C44.1563 5.46922 42.3397 5.47461 41.3821 5.48001H41.2289C38.9308 5.48001 36.8952 6.10029 35.1661 7.28691C38.4985 11.8069 40.2823 18.5221 40.2823 27.1035C40.2823 32.5674 38.0771 38.9482 31.8557 38.9482C27.6971 38.9482 23.5002 34.8489 23.5002 25.685C23.5002 17.2707 25.3989 11.3268 28.2771 7.34624C26.4769 6.1758 24.2444 5.49079 21.4866 5.49079H21.4647C18.7178 5.49079 16.3157 6.12725 14.2857 7.39478C17.5523 11.7907 19.265 18.2955 19.265 26.7044C19.265 38.0043 13.7221 39.2233 11.3363 39.2233L11.3418 39.2179ZM10.729 10.7767C8.41438 14.0345 7.19964 18.6839 7.19964 24.3959C7.19964 30.9385 9.2844 34.3635 11.3363 34.3635C13.5524 34.3635 14.3404 30.4045 14.3404 26.699C14.3404 19.6548 13.1256 14.3203 10.7235 10.7767H10.729ZM31.7736 10.9169C29.6068 14.3851 28.4248 19.4066 28.4248 25.6796C28.4248 30.9439 30.1704 34.0884 31.8557 34.0884C35.3139 34.0884 35.3576 27.1682 35.3576 27.0981C35.3576 21.4778 34.5752 15.2373 31.7736 10.9115V10.9169Z" fill="black"/>
<path d="M132.395 39.795C127.848 39.795 124.341 38.1176 121.676 35.6095C118.442 38.0852 114.612 39.3689 110.322 39.3689C106.453 39.3689 103.274 38.1068 100.878 35.6149C96.1609 30.7228 96.336 22.7616 96.3743 21.8662V0.582518H101.299V22.0496C101.293 22.1089 101.02 28.7379 104.462 32.2923C105.912 33.7918 107.832 34.5199 110.322 34.5199C113.463 34.5199 116.226 33.6192 118.59 31.8285C115.712 27.2815 114.464 21.7422 114.223 17.9126C114.108 16.6397 113.392 6.90398 117.49 2.48112C118.869 0.992442 120.675 0.204956 122.71 0.204956C124.527 0.204956 126.157 0.87378 127.438 2.14131C129.785 4.46601 130.962 8.84034 130.94 15.1456C130.918 20.507 129.506 25.5825 126.852 29.8166C126.316 30.6742 125.742 31.4725 125.14 32.2222C126.962 33.8619 129.326 34.9515 132.395 34.9515V39.8058V39.795ZM122.71 5.05932C122.054 5.05932 121.583 5.26968 121.129 5.75512C119.093 7.95576 118.825 14.1316 119.132 17.5081V17.5782C119.164 17.9773 119.564 23.4574 122.065 28.1553C122.267 27.8641 122.469 27.562 122.661 27.2546C124.839 23.781 125.999 19.5901 126.015 15.1187C126.032 10.4315 125.26 6.85544 123.947 5.56094C123.586 5.20496 123.219 5.05393 122.705 5.05393L122.71 5.05932Z" fill="black"/>
</g>
<defs>
<clipPath id="clip0_314_2966">
<rect width="171" height="40" fill="white"/>
</clipPath>
</defs>
</svg>
