<svg width="181" height="168" viewBox="0 0 181 168" fill="none" xmlns="http://www.w3.org/2000/svg">
<path fill-rule="evenodd" clip-rule="evenodd" d="M6.14176 118L10.0614 83.814L6.20525 52L3.85608 52L-1.72937e-05 83.814L3.91958 118L6.14176 118Z" fill="#FFF"/>
<path fill-rule="evenodd" clip-rule="evenodd" d="M30.3021 164L34.1976 82.1499L30.316 5L28.0425 5L24.1609 82.1499L28.0564 164L30.3021 164Z" fill="#FFF"/>
<path fill-rule="evenodd" clip-rule="evenodd" d="M53.3202 123L57.2884 82.622L53.4837 46L51.073 46L47.2682 82.622L51.2364 123L53.3202 123Z" fill="#FFF"/>
<path fill-rule="evenodd" clip-rule="evenodd" d="M77.4663 150L81.3851 81.6419L77.5281 18L75.2394 18L71.3825 81.6419L75.3013 150L77.4663 150Z" fill="#FFF"/>
<path fill-rule="evenodd" clip-rule="evenodd" d="M102.296 168L106.216 80.9895L102.359 3.3715e-07L100.039 5.4e-07L96.1823 80.9895L100.102 168L102.296 168Z" fill="#FFF"/>
<path fill-rule="evenodd" clip-rule="evenodd" d="M127.439 135L131.358 82.1769L127.501 33L125.207 33L121.35 82.1769L125.269 135L127.439 135Z" fill="#FFF"/>
<path fill-rule="evenodd" clip-rule="evenodd" d="M151.356 145L155.275 82.8522L151.418 25.0002L149.109 25.0002L145.252 82.8522L149.171 145L151.356 145Z" fill="#FFF"/>
<path fill-rule="evenodd" clip-rule="evenodd" d="M176.131 107L180.134 83.1929L176.367 62.0002L173.853 62.0002L170.086 83.1929L174.089 107L176.131 107Z" fill="#FFF"/>
</svg>
