<svg width="20" height="22" viewBox="0 0 20 22" fill="none" xmlns="http://www.w3.org/2000/svg">
<path fill-rule="evenodd" clip-rule="evenodd" d="M20 11C20 10.2406 19.4404 9.625 18.75 9.625H1.25C0.559644 9.625 0 10.2406 0 11C0 11.7594 0.559644 12.375 1.25 12.375H18.75C19.4404 12.375 20 11.7594 20 11Z" fill="#161616"/>
<path fill-rule="evenodd" clip-rule="evenodd" d="M10.8839 0.402728C10.3957 -0.134243 9.60427 -0.134243 9.11612 0.402728L0.366117 10.0277C-0.122039 10.5647 -0.122039 11.4353 0.366117 11.9723L9.11612 21.5973C9.60427 22.1342 10.3957 22.1342 10.8839 21.5973C11.372 21.0603 11.372 20.1897 10.8839 19.6527L3.01777 11L10.8839 2.34727C11.372 1.8103 11.372 0.939699 10.8839 0.402728Z" fill="#161616"/>
</svg>
