<svg width="1280" height="416" viewBox="0 0 1280 416" fill="none" xmlns="http://www.w3.org/2000/svg">
<g clip-path="url(#clip0_319_3677)">
<path d="M-112.846 178.397C-78.7099 124.605 -26.2045 62.2686 44.7671 54.0758C132.927 43.9036 192.303 123.928 298.085 210.567C399.577 293.724 516.906 412.583 676.182 372.445C862.82 325.393 955.44 68.2317 1127.01 33.6061C1239.9 10.8063 1355.16 123.502 1428.18 210.592" stroke="#DFFF0F" stroke-width="57.8572" stroke-miterlimit="10"/>
<path d="M15.3652 71.9373L11.5106 67.3511L3.47073 70.4619L3.49427 76.5305L0.661432 77.6266L0.928078 55.8173L4.73218 54.3454L18.7107 70.6429L15.3652 71.9373ZM3.45896 67.4276L9.5833 65.058L3.4369 57.7614L3.45896 67.4276Z" fill="black"/>
<path d="M42.1806 66.0416C35.071 67.0026 30.8875 62.2262 30.2301 56.9733C29.5728 51.7203 32.4416 45.9907 39.5512 45.0297C46.6609 44.0687 50.8444 48.8451 51.5017 54.0981C52.1591 59.351 49.2902 65.0806 42.1806 66.0416ZM33.7563 56.4966C34.2161 60.1709 37.0553 63.5234 41.7855 62.8841C46.5157 62.2447 48.4353 58.2489 47.9756 54.5747C47.5158 50.9005 44.6766 47.5479 39.9464 48.1872C35.2162 48.8266 33.2965 52.8224 33.7563 56.4966Z" fill="black"/>
<path d="M81.8832 66.2042L83.9655 49.2638L72.9535 47.8018L70.8712 64.7422L67.6594 64.3157L70.1299 44.217L87.5655 46.5319L85.095 66.6306L81.8832 66.2042Z" fill="black"/>
<path d="M94.8985 69.3778L100.018 63.5912C99.7533 63.5709 99.441 63.506 99.109 63.4047C97.089 62.7889 95.9802 61.1808 95.9161 58.1074C95.8701 56.4605 95.8565 55.3376 95.7991 54.0502C95.7361 51.612 95.3866 50.5077 93.6157 49.9677C93.4497 49.9171 93.2283 49.8496 93.0544 49.8268L93.6595 47.6831C94.0626 47.7455 94.5843 47.8139 95.0547 47.9573C98.0155 48.86 98.9696 50.058 99.0677 54.7142C99.0728 55.4414 99.1018 56.2969 99.1564 58.3394C99.2069 60.2899 99.4387 62.0237 100.601 62.378C100.712 62.4118 100.83 62.4177 100.941 62.4514L109.448 52.6482L112.658 53.6268L98.1084 70.3565L94.8985 69.3778Z" fill="black"/>
<path d="M115.384 77.012L122.074 61.2471L114.763 57.8959L115.984 55.0199L133.761 63.1687L132.251 65.9121L125.019 62.5971L118.329 78.3621L115.384 77.012Z" fill="black"/>
<path d="M129.103 83.8239L138.772 66.0318L150.423 72.8712L148.986 75.5146L140.08 70.2862L137.428 75.1663L143.166 78.5348L141.743 81.1527L136.005 77.7843L133.283 82.7915L143.986 89.0744L142.275 91.5567L129.103 83.8239Z" fill="black"/>
<path d="M145.509 93.6198L156.687 76.7347L159.323 78.6193L149.901 92.851L156.513 97.5794L165.935 83.3477L168.571 85.2323L159.149 99.4641L165.714 104.159L175.136 89.9271L177.771 91.8117L166.593 108.697L145.509 93.6198Z" fill="black"/>
<path d="M171.497 112.802L183.603 96.5696L194.124 105.045L192.325 107.457L184.283 100.978L180.962 105.43L186.143 109.604L184.362 111.993L179.181 107.819L175.774 112.387L185.438 120.172L183.392 122.384L171.497 112.802Z" fill="black"/>
<path d="M192.726 130.927C188.215 127.076 187.452 120.723 191.29 115.866C195.129 111.009 201.328 110.486 205.838 114.336C209.974 117.867 210.594 122.957 208.344 127.156L206.166 125.297C207.585 122.289 206.75 118.916 204.33 116.85C201.162 114.145 196.817 114.655 194.018 118.195C191.22 121.736 191.691 126.129 194.859 128.833C197.147 130.787 200.216 131.24 202.532 129.568L204.732 131.446C201.342 134.291 196.598 134.233 192.726 130.927Z" fill="black"/>
<path d="M208.674 144.237L219.519 130.983L213.494 125.657L215.472 123.239L230.125 136.191L227.908 138.398L221.947 133.129L211.101 146.383L208.674 144.237Z" fill="black"/>
<path d="M220.674 154.911L233.593 139.318L239.177 144.314C240.341 145.356 241.163 146.674 241.37 148.101C241.562 149.319 241.239 150.66 240.114 152.019C238.729 153.69 237.07 153.834 235.799 153.511L235.707 153.623C237.164 155.896 236.879 158.279 235.366 160.106C233.852 161.933 231.96 162.722 229.805 162.151C228.678 161.88 227.896 161.374 225.977 159.657L220.674 154.911ZM224.879 154.911L227.66 157.4C228.759 158.384 229.748 158.958 230.674 158.972C231.441 158.999 232.29 158.517 232.88 157.804C233.489 157.069 233.858 156.08 233.645 155.114C233.457 154.208 232.832 153.377 231.775 152.432L228.995 149.943L224.879 154.911ZM230.526 148.095L232.747 150.082C233.393 150.66 234.052 151.134 234.687 151.274C235.733 151.552 236.69 150.895 237.244 150.227C238.074 149.224 238.188 148.317 237.861 147.443C237.633 146.812 237.085 146.205 236.438 145.626L234.218 143.639L230.526 148.095Z" fill="black"/>
<path d="M235.697 168.362L248.597 152.753L251.014 154.911L240.639 167.465L258.848 161.904L261.718 164.466L248.818 180.075L246.401 177.918L256.703 165.452L238.567 170.924L235.697 168.362Z" fill="black"/>
<path d="M253.749 184.81C252.923 184.084 253.086 184.112 252.721 183.599L254.017 182.006L254.365 182.311C255.864 183.628 257.307 182.587 259.222 181.653C261.021 180.771 262.537 180.602 264.383 181.493C263.982 181.025 263.598 180.534 263.291 179.995C262.317 178.215 262.063 176.145 263.815 173.991C265.349 172.106 267.35 171.478 269.332 172.065C270.653 172.456 271.816 173.363 272.968 174.375L277.336 178.213L264.558 193.922L262.124 191.783L267.801 184.804L267.475 184.518C265.106 182.436 262.748 183.366 260.499 184.391C257.473 185.773 255.878 186.681 253.749 184.81ZM266.078 176.248C265.184 177.348 265.049 178.384 265.499 179.434C265.777 180.101 266.406 180.884 266.993 181.4L269.079 183.233L273.186 178.184L271.1 176.351C270.231 175.587 269.346 175.117 268.496 175.063C267.605 175.012 266.79 175.373 266.078 176.248Z" fill="black"/>
<path d="M278.633 206.04L279.437 196.481L270.578 199.124L267.922 196.844L279.694 193.463L280.698 181.142L283.551 183.592L282.774 192.793L291.212 190.169L293.867 192.449L282.545 195.683L281.487 208.49L278.633 206.04Z" fill="black"/>
<path d="M292.678 215.234C294.115 215.78 294.815 215.72 295.678 215.495C301.191 214.08 308.39 204.542 315.938 210.757L317.814 212.302L307.308 226.083L309.474 227.866L304.564 234.308L302.33 232.469L305.47 228.351L293.701 218.66L290.562 222.778L288.328 220.939L292.678 215.234ZM297.371 217.899L304.807 224.023L313.629 212.451C308.708 209.036 302.109 216.596 297.371 217.899Z" fill="black"/>
<path d="M310.119 232.66C309.61 232.233 309.197 231.774 308.945 231.486L310.293 229.75C312.554 231.646 315.286 230.391 318.732 228.263C323.029 225.605 328.609 221.343 334.46 226.251L336.277 227.776L323.856 243.769L321.374 241.687L332.109 227.864C328.594 225.368 324.389 228.331 320.278 230.844C316.584 233.103 313.222 235.263 310.119 232.66Z" fill="black"/>
<path d="M328.905 248.032L341.349 232.056L343.828 234.142L333.82 246.991L351.864 240.902L354.808 243.379L342.364 259.355L339.885 257.269L349.822 244.511L331.85 250.509L328.905 248.032Z" fill="black"/>
<path d="M358.526 272.789L363.798 265.931L355.251 258.835L349.98 265.693L347.487 263.623L359.828 247.568L362.32 249.637L357.19 256.312L365.737 263.408L370.867 256.733L373.36 258.803L361.019 274.858L358.526 272.789Z" fill="black"/>
<path d="M373.219 285.378C367.634 280.876 368.03 274.4 371.197 270.157C374.363 265.915 380.3 263.905 385.885 268.408C391.47 272.911 391.074 279.386 387.908 283.629C384.741 287.872 378.805 289.881 373.219 285.378ZM373.967 272.39C371.752 275.358 371.407 279.832 375.123 282.828C378.839 285.824 382.923 284.363 385.138 281.396C387.352 278.428 387.698 273.954 383.982 270.958C380.266 267.962 376.182 269.423 373.967 272.39Z" fill="black"/>
<path d="M386.155 295.088L397.911 278.6L400.478 280.577L391.023 293.838L408.798 286.984L411.846 289.332L400.09 305.82L397.523 303.843L406.911 290.676L389.203 297.435L386.155 295.088ZM404.002 277.526L405.905 278.991C405.578 279.798 405.334 280.887 406.434 281.734C407.534 282.581 408.42 281.986 409.045 281.409L410.947 282.874C409.18 284.506 407.121 284.306 405.517 283.071C403.775 281.729 402.992 279.74 404.002 277.526Z" fill="black"/>
<path d="M414.225 316.188L425.307 299.239L431.427 303.562C432.703 304.463 433.671 305.678 434.039 307.07C434.367 308.258 434.198 309.625 433.233 311.102C432.045 312.918 430.412 313.25 429.11 313.075L429.031 313.196C430.738 315.286 430.725 317.684 429.427 319.669C428.129 321.654 426.336 322.653 424.127 322.332C422.976 322.192 422.141 321.779 420.038 320.293L414.225 316.188ZM418.407 315.708L421.455 317.861C422.66 318.712 423.709 319.17 424.632 319.078C425.397 319.017 426.187 318.443 426.694 317.668C427.216 316.869 427.471 315.846 427.15 314.911C426.86 314.033 426.144 313.28 424.986 312.462L421.938 310.309L418.407 315.708ZM423.252 308.3L425.686 310.019C426.394 310.519 427.104 310.914 427.75 310.981C428.823 311.137 429.7 310.377 430.175 309.65C430.888 308.561 430.897 307.647 430.473 306.817C430.175 306.217 429.561 305.677 428.852 305.176L426.418 303.457L423.252 308.3Z" fill="black"/>
<path d="M447.606 339.156C441.518 335.359 441.147 328.891 443.794 324.307C446.441 319.722 452.108 317.021 458.195 320.818C464.282 324.615 464.654 331.082 462.007 335.667C459.359 340.251 453.693 342.952 447.606 339.156ZM446.813 326.19C444.961 329.396 445.147 333.874 449.197 336.4C453.247 338.926 457.136 336.99 458.988 333.783C460.839 330.577 460.654 326.099 456.604 323.573C452.554 321.047 448.665 322.983 446.813 326.19Z" fill="black"/>
<path d="M459.355 343.508C460.869 343.789 461.549 343.606 462.361 343.23C467.553 340.862 472.983 330.217 481.523 334.978L483.645 336.161L475.698 351.559L478.149 352.926L474.434 360.124L471.907 358.715L474.282 354.114L460.966 346.69L458.591 351.291L456.064 349.883L459.355 343.508ZM464.454 345.291L472.868 349.982L479.542 337.051C474.086 334.573 468.901 343.169 464.454 345.291Z" fill="black"/>
<path d="M481.603 357.937L489.849 339.442L492.768 340.847L486.136 355.723L502.229 345.403L505.695 347.073L497.45 365.568L494.531 364.162L501.115 349.392L485.07 359.606L481.603 357.937Z" fill="black"/>
<path d="M517.493 373.774L520.477 365.655L510.151 361.557L507.168 369.676L504.157 368.481L511.141 349.473L514.152 350.669L511.249 358.57L521.574 362.668L524.477 354.766L527.489 355.961L520.505 374.969L517.493 373.774Z" fill="black"/>
<path d="M536.344 378.206C537.888 378.106 538.508 377.761 539.212 377.199C543.718 373.635 546.506 362.016 555.959 364.518L558.308 365.14L554.183 381.97L556.896 382.689L554.967 390.556L552.171 389.815L553.404 384.786L538.666 380.885L537.433 385.914L534.637 385.174L536.344 378.206ZM541.738 378.676L551.051 381.141L554.514 367.008C548.609 365.954 545.576 375.533 541.738 378.676Z" fill="black"/>
<path d="M561.592 386.556L564.902 366.579L578.2 368.959L577.708 371.927L567.542 370.107L566.635 375.587L573.184 376.759L572.697 379.699L566.148 378.527L565.216 384.149L577.432 386.335L576.627 389.247L561.592 386.556Z" fill="black"/>
<path d="M596.071 391.19L596.779 382.569L585.714 381.587L585.006 390.208L581.779 389.922L583.437 369.74L586.664 370.026L585.975 378.416L597.04 379.398L597.729 371.008L600.957 371.294L599.299 391.476L596.071 391.19Z" fill="black"/>
<path d="M606.565 391.671L606.558 371.421L609.798 371.42L609.801 379.693L613.098 379.692C615.21 379.691 616.541 379.922 617.525 380.472C619.319 381.426 620.419 383.103 620.419 385.562C620.42 388.368 619.09 390.22 616.979 391.117C615.966 391.552 614.202 391.668 612.466 391.669L606.565 391.671ZM609.804 388.95L612.899 388.949C614.288 388.949 615.069 388.891 615.792 388.485C616.631 388.022 617.151 387.183 617.15 385.795C617.15 384.406 616.629 383.567 615.79 383.105C615.067 382.7 614.285 382.642 612.897 382.643L609.802 382.644L609.804 388.95Z" fill="black"/>
<path d="M646.706 380.359C647.686 379.77 648.54 379.228 649.269 378.732C649.996 378.227 650.624 377.731 651.153 377.242C651.68 376.745 652.133 376.227 652.511 375.69C652.888 375.153 653.217 374.548 653.495 373.875C653.774 373.203 654.023 372.44 654.243 371.587C654.47 370.723 654.693 369.72 654.913 368.58C655.49 369.576 656.022 370.441 656.508 371.176C657.002 371.9 657.49 372.529 657.971 373.064C658.452 373.599 658.953 374.054 659.474 374.428C660.005 374.801 660.599 375.129 661.257 375.411C661.924 375.683 662.676 375.929 663.515 376.151C664.362 376.361 665.343 376.571 666.457 376.78C665.478 377.379 664.625 377.926 663.896 378.421C663.177 378.915 662.549 379.412 662.012 379.911C661.483 380.399 661.03 380.912 660.652 381.449C660.284 381.985 659.96 382.589 659.681 383.262C659.403 383.934 659.15 384.702 658.922 385.567C658.703 386.42 658.483 387.416 658.264 388.557C657.677 387.563 657.141 386.703 656.657 385.977C656.171 385.242 655.687 384.607 655.206 384.073C654.725 383.538 654.219 383.084 653.689 382.711C653.158 382.338 652.565 382.015 651.908 381.742C651.249 381.459 650.497 381.213 649.65 381.003C648.801 380.783 647.82 380.569 646.706 380.359Z" fill="black"/>
<path d="M696.635 377.87L689.77 358.819L693.787 357.256L702.501 363.608L705.164 352.828L708.695 351.453L715.56 370.504L712.54 371.68L706.941 356.139L703.712 368.506L693.631 361.258L699.25 376.852L696.635 377.87Z" fill="black"/>
<path d="M722.344 367.411L713.929 348.992L726.044 343.014L727.294 345.75L718.033 350.321L720.341 355.373L726.307 352.428L727.546 355.138L721.579 358.083L723.947 363.266L735.076 357.774L736.041 360.651L722.344 367.411Z" fill="black"/>
<path d="M737.313 357.834C738.351 356.656 738.566 355.96 738.695 355.047C739.546 349.219 733.798 338.747 742.234 333.803L744.331 332.575L752.595 347.805L755.016 346.386L758.879 353.506L756.383 354.968L753.913 350.417L740.761 358.126L743.23 362.677L740.734 364.14L737.313 357.834ZM741.489 354.314L749.8 349.443L742.86 336.654C737.928 340.114 742.142 349.273 741.489 354.314Z" fill="black"/>
<path d="M761.066 346.03L750.239 328.918L752.913 327.09L761.622 340.853L761.583 321.164L764.76 318.993L775.587 336.105L772.912 337.933L764.266 324.268L764.243 343.859L761.066 346.03Z" fill="black"/>
<path d="M792.395 323.408L787.451 320.066L780.625 325.331L782.316 331.182L779.911 333.037L774.168 311.91L777.397 309.419L795.235 321.217L792.395 323.408ZM779.779 322.405L784.979 318.395L777.099 313.081L779.779 322.405Z" fill="black"/>
<path d="M814.909 305.167C809.538 309.924 803.518 308.19 800.161 304.096C796.804 300.003 796.111 293.55 801.481 288.793C806.852 284.036 812.872 285.77 816.229 289.864C819.586 293.957 820.279 300.41 814.909 305.167ZM802.824 301.737C805.172 304.6 809.318 305.871 812.891 302.706C816.464 299.541 815.913 295.086 813.565 292.223C811.217 289.36 807.072 288.088 803.499 291.253C799.926 294.418 800.476 298.874 802.824 301.737Z" fill="black"/>
<path d="M844.915 276.389L833.442 263.753L825.511 271.531L836.984 284.167L834.671 286.436L821.058 271.444L833.616 259.128L847.228 274.12L844.915 276.389Z" fill="black"/>
<path d="M855.144 266.12L852.641 258.621C852.5 258.85 852.298 259.098 852.055 259.347C850.582 260.86 848.696 261.058 846.057 259.583C844.637 258.803 843.678 258.255 842.558 257.665C840.459 256.506 839.357 256.27 838.065 257.597C837.944 257.721 837.783 257.887 837.682 258.032L836.147 256.418C836.389 256.086 836.693 255.65 837.036 255.297C839.195 253.08 840.661 252.817 844.659 255.051C845.279 255.409 846.019 255.809 847.778 256.779C849.458 257.706 851.038 258.361 851.886 257.491C851.967 257.408 852.027 257.304 852.108 257.221L847.79 244.667L850.131 242.263L857.485 263.715L855.144 266.12Z" fill="black"/>
<path d="M870.895 249.73L858.897 237.51L853.379 243.361L851.191 241.131L864.606 226.903L866.577 229.364L861.119 235.152L873.118 247.372L870.895 249.73Z" fill="black"/>
<path d="M881.926 237.984L867.588 223.684L876.753 213.758L878.883 215.883L871.877 223.47L875.81 227.392L880.323 222.504L882.433 224.608L877.919 229.497L881.955 233.521L890.374 224.403L892.288 226.761L881.926 237.984Z" fill="black"/>
<path d="M895.349 223.443L880.924 209.231L883.108 206.837L895.266 218.816L900.744 212.81L888.586 200.831L890.769 198.437L902.928 210.416L908.367 204.453L896.208 192.474L898.392 190.08L912.817 204.292L895.349 223.443Z" fill="black"/>
<path d="M917.479 199.167L903.081 184.928L912.204 174.964L914.343 177.079L907.369 184.696L911.318 188.602L915.811 183.695L917.93 185.79L913.437 190.697L917.489 194.705L925.87 185.552L927.794 187.902L917.479 199.167Z" fill="black"/>
<path d="M936.795 178.829C932.758 183.173 926.604 183.425 922.235 179.039C917.866 174.652 917.835 168.19 921.872 163.846C925.575 159.863 930.506 159.652 934.364 162.338L932.414 164.435C929.636 162.711 926.336 163.289 924.17 165.62C921.334 168.671 921.492 173.214 924.677 176.411C927.862 179.609 932.113 179.494 934.949 176.442C936.997 174.239 937.665 171.1 936.237 168.56L938.206 166.441C940.679 170.193 940.262 175.1 936.795 178.829Z" fill="black"/>
<path d="M950.827 163.232L938.916 150.926L933.357 156.738L931.184 154.493L944.702 140.361L946.655 142.836L941.156 148.585L953.066 160.89L950.827 163.232Z" fill="black"/>
<path d="M961.968 151.649L948.172 136.826L953.455 131.514C954.557 130.406 955.893 129.678 957.279 129.596C958.464 129.512 959.72 129.97 960.922 131.262C962.4 132.85 962.392 134.581 961.969 135.866L962.068 135.972C964.376 134.676 966.634 135.193 968.251 136.929C969.867 138.666 970.455 140.698 969.717 142.875C969.357 144.015 968.803 144.778 966.987 146.603L961.968 151.649ZM962.341 147.297L964.973 144.652C966.014 143.606 966.652 142.636 966.748 141.679C966.841 140.888 966.455 139.964 965.824 139.287C965.174 138.588 964.259 138.114 963.314 138.244C962.429 138.355 961.578 138.924 960.578 139.93L957.946 142.575L962.341 147.297ZM956.31 140.818L958.412 138.705C959.024 138.09 959.536 137.452 959.727 136.809C960.085 135.752 959.541 134.7 958.95 134.065C958.063 133.112 957.204 132.91 956.337 133.167C955.712 133.344 955.082 133.855 954.47 134.47L952.368 136.583L956.31 140.818Z" fill="black"/>
<path d="M976.071 137.483L962.684 122.289L965.031 120.055L975.798 132.276L972.638 112.816L975.425 110.164L988.812 125.358L986.465 127.591L975.774 115.458L978.858 134.831L976.071 137.483Z" fill="black"/>
<path d="M993.889 121.039C993.065 121.768 993.119 121.605 992.572 121.895L991.271 120.306L991.617 119.999C993.113 118.677 992.36 117.027 991.785 114.911C991.24 112.923 991.327 111.341 992.474 109.593C991.964 109.929 991.436 110.242 990.874 110.468C989.026 111.177 987.019 111.099 985.26 108.951C983.72 107.07 983.451 104.916 984.331 102.98C984.918 101.689 985.968 100.644 987.116 99.6284L991.472 95.776L1004.3 111.443L1001.87 113.59L996.175 106.629L995.849 106.917C993.488 109.006 993.985 111.576 994.592 114.05C995.411 117.377 996.012 119.161 993.889 121.039ZM987.772 106.999C988.67 108.096 989.631 108.403 990.701 108.113C991.38 107.937 992.226 107.42 992.811 106.902L994.892 105.062L990.768 100.026L988.688 101.866C987.821 102.633 987.231 103.464 987.041 104.327C986.847 105.231 987.057 106.126 987.772 106.999Z" fill="black"/>
<path d="M1018.5 99.6388L1009.69 96.78L1010.26 106.337L1007.55 108.545L1006.91 95.8741L995.547 92.2212L998.465 89.8486L1006.94 92.604L1006.3 83.479L1009.01 81.2706L1009.61 93.454L1021.42 97.2661L1018.5 99.6388Z" fill="black"/>
<path d="M1030.31 87.8541C1031.27 86.6077 1031.44 85.8986 1031.51 84.9775C1031.97 79.1001 1025.55 69.0255 1033.64 63.5225L1035.64 62.1549L1044.88 76.8138L1047.2 75.2345L1051.52 82.0868L1049.13 83.7149L1046.37 79.3344L1033.77 87.9146L1036.53 92.2951L1034.14 93.9232L1030.31 87.8541ZM1034.24 84.059L1042.21 78.6373L1034.45 66.3277C1029.76 70.114 1034.56 78.9803 1034.24 84.059Z" fill="black"/>
<path d="M1051.44 76.2938C1050.86 76.6262 1050.3 76.8531 1049.94 76.9899L1048.91 75.0503C1051.46 73.5764 1051.39 70.4839 1050.8 66.3817C1050.07 61.2639 1048.4 54.3196 1055.01 50.5049L1057.07 49.3201L1066.6 67.1844L1063.8 68.8027L1055.55 53.3629C1051.98 55.8221 1053.02 60.963 1053.7 65.8478C1054.3 70.2375 1054.95 74.2709 1051.44 76.2938Z" fill="black"/>
<path d="M1071.89 64.2937L1063.91 45.6811L1066.85 44.3199L1073.27 59.2898L1076.38 39.9083L1079.87 38.2919L1087.85 56.9045L1084.91 58.2657L1078.54 43.4022L1075.38 62.6773L1071.89 64.2937Z" fill="black"/>
<path d="M1106.93 49.9442L1104.33 41.6956L1093.81 45.2799L1096.41 53.5285L1093.35 54.574L1087.25 35.2629L1090.32 34.2174L1092.85 42.2453L1103.37 38.661L1100.83 30.633L1103.9 29.5876L1110 48.8987L1106.93 49.9442Z" fill="black"/>
<path d="M1125.06 45.6939C1118.07 47.2996 1113.5 42.9178 1112.4 37.7396C1111.3 32.5614 1113.66 26.5868 1120.66 24.9811C1127.65 23.3753 1132.22 27.7571 1133.32 32.9353C1134.42 38.1135 1132.05 44.0881 1125.06 45.6939ZM1115.87 36.9432C1116.64 40.5651 1119.75 43.6496 1124.4 42.5813C1129.05 41.5129 1130.62 37.3536 1129.85 33.7317C1129.08 30.1098 1125.97 27.0253 1121.32 28.0936C1116.67 29.162 1115.1 33.3213 1115.87 36.9432Z" fill="black"/>
<path d="M1139.83 42.5119L1138.81 22.2877L1142.04 22.1109L1142.87 38.377L1152.53 21.5379L1156.37 21.328L1157.39 41.5521L1154.16 41.7289L1153.34 25.5785L1143.67 42.302L1139.83 42.5119ZM1142.91 17.4861L1145.31 17.3551C1145.55 18.1819 1146.04 19.1694 1147.42 19.0936C1148.81 19.0179 1149.13 17.9861 1149.27 17.1388L1151.66 17.0078C1151.29 19.4037 1149.56 20.5995 1147.53 20.71C1145.34 20.8299 1143.49 19.8299 1142.91 17.4861Z" fill="black"/>
<path d="M1173.79 42.5453L1176.42 22.4676L1183.84 23.5196C1185.39 23.7389 1186.79 24.3763 1187.73 25.4444C1188.55 26.3488 1188.99 27.6388 1188.76 29.3884C1188.48 31.5396 1187.15 32.5778 1185.89 33.0136L1185.87 33.157C1188.33 34.2355 1189.36 36.3687 1189.05 38.7207C1188.74 41.0726 1187.56 42.7743 1185.42 43.4938C1184.32 43.8926 1183.38 43.906 1180.83 43.5445L1173.79 42.5453ZM1177.36 40.218L1181.06 40.742C1182.52 40.9492 1183.66 40.8781 1184.46 40.3773C1185.12 39.975 1185.59 39.1059 1185.71 38.1881C1185.83 37.2416 1185.62 36.2176 1184.92 35.5343C1184.28 34.8878 1183.3 34.5448 1181.9 34.3458L1178.2 33.8218L1177.36 40.218ZM1178.51 31.4412L1181.46 31.8596C1182.32 31.9814 1183.14 32.0091 1183.75 31.7748C1184.79 31.4253 1185.25 30.3514 1185.36 29.4909C1185.53 28.2002 1185.14 27.3854 1184.4 26.8414C1183.87 26.4447 1183.08 26.2449 1182.22 26.1231L1179.27 25.7047L1178.51 31.4412Z" fill="black"/>
<path d="M1212.26 51.4016C1205.43 49.2229 1203.53 43.0648 1205.03 37.9873C1206.53 32.9098 1211.42 28.9129 1218.25 31.0917C1225.09 33.2704 1226.98 39.4285 1225.48 44.5059C1223.98 49.5834 1219.1 53.5803 1212.26 51.4016ZM1208.42 39.0679C1207.37 42.6194 1208.61 46.9 1213.16 48.3496C1217.71 49.7991 1221.04 46.9768 1222.09 43.4254C1223.14 39.8739 1221.9 35.5933 1217.35 34.1437C1212.81 32.6941 1209.47 35.5164 1208.42 39.0679Z" fill="black"/>
<path d="M1224.22 52.7796C1225.76 52.9012 1226.42 52.6481 1227.19 52.1912C1232.13 49.2982 1236.46 38.1635 1245.45 42.0008L1247.69 42.9544L1241.32 59.0709L1243.9 60.1721L1240.93 67.7057L1238.27 66.5704L1240.17 61.7543L1226.15 55.7713L1224.25 60.5874L1221.58 59.4521L1224.22 52.7796ZM1229.48 54.0189L1238.34 57.7994L1243.69 44.2659C1238 42.3732 1233.7 51.4483 1229.48 54.0189Z" fill="black"/>
<path d="M1246.51 64.7866L1255.39 46.5844L1258.25 48.0941L1251.12 62.7338L1267.54 52.9869L1270.95 54.7795L1262.07 72.9817L1259.21 71.4721L1266.29 56.9364L1249.92 66.5793L1246.51 64.7866Z" fill="black"/>
<path d="M1279.56 83.6683L1283.87 76.1668L1274.43 70.3129L1270.12 77.8145L1267.37 76.1071L1277.45 58.5449L1280.2 60.2523L1276.01 67.5531L1285.45 73.407L1289.64 66.1061L1292.4 67.8135L1282.31 85.3757L1279.56 83.6683Z" fill="black"/>
</g>
<defs>
<clipPath id="clip0_319_3677">
<rect width="1587" height="414.855" fill="white" transform="translate(-137 0.559082)"/>
</clipPath>
</defs>
</svg>
