<svg width="551" height="127" viewBox="0 0 551 127" fill="none" xmlns="http://www.w3.org/2000/svg">
<path d="M213.402 74.3915V124.037H197.137V3.37354H251.793C264.255 3.37354 274.06 6.74719 281.242 13.5116C288.424 20.276 292.015 28.7359 292.015 38.8739C292.015 43.6347 291.082 48.1729 289.198 52.4542C287.315 56.7354 284.71 60.5201 281.33 63.7739C277.95 67.0277 273.726 69.6135 268.621 71.5144C263.516 73.4153 257.919 74.3743 251.793 74.3743H213.384L213.402 74.3915ZM213.402 59.407H250.42C257.919 59.407 263.868 57.5917 268.286 53.9783C272.687 50.3649 274.905 45.3301 274.905 38.8739C274.905 32.4178 272.705 27.4001 268.286 23.8209C263.868 20.2247 257.919 18.4437 250.42 18.4437H213.402V59.4241V59.407Z" fill="#F8F8F3"/>
<path d="M534.5 16.4916H465.85V126.726H450.131V1.84961H550.29V126.726H534.483V16.4916H534.5Z" fill="#F8F8F3"/>
<path d="M37.3858 124.517C23.9374 124.517 8.23586 112.187 8.23586 77.4567C8.23586 54.9543 13.6751 36.4078 24.043 23.2728C15.0481 17.8442 5.7891 17.8442 1.54688 17.8442V2.43155C14.9777 2.43155 26.3666 5.8052 35.5375 12.3299C45.1661 5.54832 56.9071 2.00342 69.9682 2.00342H70.0562C82.9237 2.00342 93.943 5.4627 102.92 12.0387C112.25 5.03457 123.022 2.00342 133.531 2.00342H133.954C138.214 1.98629 149.462 1.93492 158.65 10.84C166.642 18.5805 170.69 30.9278 170.69 47.5563V124.328H154.848V47.5563C154.848 35.346 152.296 26.4239 147.472 21.7487C142.949 17.3647 137.105 17.3818 134.024 17.3989H133.531C126.138 17.3989 119.59 19.3683 114.028 23.1358C124.748 37.4867 130.486 58.8075 130.486 86.0536C130.486 103.401 123.392 123.66 103.378 123.66C90 123.66 76.4988 110.645 76.4988 81.5497C76.4988 54.8344 82.6069 35.9626 91.8658 23.3242C86.0746 19.6081 78.8927 17.4332 70.021 17.4332H69.9506C61.1141 17.4332 53.3866 19.4539 46.856 23.4783C57.3647 37.4353 62.8744 58.0882 62.8744 84.7863C62.8744 120.663 45.0429 124.534 37.3682 124.534L37.3858 124.517ZM35.4143 34.2158C27.9684 44.5594 24.0606 59.3212 24.0606 77.4567C24.0606 98.2295 30.7672 109.104 37.3682 109.104C44.4972 109.104 47.032 96.5341 47.032 84.7692C47.032 62.4038 43.1242 45.467 35.3967 34.2158H35.4143ZM103.114 34.661C96.1433 45.6725 92.3411 61.616 92.3411 81.5325C92.3411 98.2467 97.9563 108.231 103.378 108.231C114.503 108.231 114.644 86.2591 114.644 86.0364C114.644 68.1921 112.126 48.3783 103.114 34.6439V34.661Z" fill="#F8F8F3"/>
<path d="M426.812 126.349C412.184 126.349 400.901 121.023 392.328 113.06C381.925 120.92 369.603 124.996 355.803 124.996C343.358 124.996 333.131 120.989 325.421 113.077C310.247 97.5446 310.811 72.2679 310.934 69.4252V1.84939H326.776V70.0074C326.759 70.1958 325.878 91.2426 336.951 102.528C341.615 107.289 347.794 109.601 355.803 109.601C365.907 109.601 374.796 106.741 382.4 101.055C373.141 86.6188 369.128 69.0313 368.354 56.8724C367.984 52.8309 365.678 21.9201 378.862 7.87744C383.298 3.1509 389.107 0.650635 395.655 0.650635C401.499 0.650635 406.745 2.77415 410.864 6.79856C418.415 14.1795 422.2 28.068 422.129 48.0873C422.059 65.1096 417.518 81.2244 408.98 94.6676C407.255 97.3905 405.407 99.925 403.471 102.305C409.332 107.511 416.937 110.971 426.812 110.971V126.383V126.349ZM395.655 16.0633C393.543 16.0633 392.029 16.7311 390.568 18.2724C384.02 25.2595 383.157 44.8677 384.143 55.5881V55.8107C384.249 57.078 385.534 74.4771 393.578 89.3931C394.229 88.4683 394.881 87.5093 395.497 86.5332C402.503 75.5046 406.234 62.1984 406.287 48.0016C406.34 33.1199 403.858 21.7659 399.633 17.6559C398.472 16.5256 397.292 16.0461 395.638 16.0461L395.655 16.0633Z" fill="#F8F8F3"/>
</svg>
