<svg width="210" height="119" viewBox="0 0 210 119" fill="none" xmlns="http://www.w3.org/2000/svg">
<path fill-rule="evenodd" clip-rule="evenodd" d="M36.5507 68.7368C44.9799 67.3554 49.6384 66.0474 52.317 62.3225C54.9956 58.5975 54.8395 53.6453 53.6398 44.9746C42.6731 46.9684 35.1723 57.3981 36.5507 68.7368ZM54.8899 44.7861C56.3 53.425 57.611 58.2031 61.2698 60.9723C64.9279 63.7416 69.7652 63.6174 78.2269 62.4516C76.2 51.2108 65.9571 43.4571 54.8899 44.7861ZM78.42 63.7323C69.9908 65.1137 65.3321 66.4217 62.6534 70.1467C59.9748 73.8716 60.1305 78.8242 61.3309 87.4945C72.2977 85.5005 79.7984 75.0711 78.42 63.7323ZM60.0808 87.6831C58.67 79.0445 57.3586 74.2662 53.7006 71.4969C50.0426 68.7278 45.2055 68.8517 36.7438 70.0175C38.7708 81.2587 49.0138 89.0122 60.0808 87.6831Z" fill="white"/>
<path d="M96.1241 83.6645L95.1118 76.9526L111.914 74.4186L112.927 81.1304L118.031 80.3607L116.363 69.2978L113.427 69.7405L109.231 41.9214L90.0345 44.8166L91.9013 60.8676C92.502 66.0791 92.5952 70.3732 91.5199 73.0444L89.3517 73.3714L91.0201 84.4342L96.1241 83.6645ZM96.8005 60.8862L95.3432 48.4661L104.422 47.0969L107.961 70.5648L96.6693 72.2678C97.2896 69.9494 97.4022 66.0978 96.8005 60.8862Z" fill="white"/>
<path d="M125.603 68.3716C122.848 68.7872 119.984 68.1775 118.371 67.2846L119.048 71.7745C120.22 72.4972 123.007 73.2131 126.892 72.6273C132.628 71.7621 135.256 68.6674 134.551 63.9923C134.139 61.2613 132.189 59.6618 129.11 59.4634C131.771 58.1153 132.638 55.9015 132.247 53.3091C131.654 49.3748 128.299 47.6556 123.421 48.3913C119.898 48.9226 117.762 50.381 116.578 51.4117L117.255 55.9016C118.554 54.7116 120.373 53.3009 123.31 52.858C125.297 52.5583 126.708 53.3397 126.966 55.0526C127.239 56.8579 126.301 57.9931 124.088 58.3269L120.701 58.8378L121.329 63.0038L124.717 62.4929C127.472 62.0774 128.681 62.7471 128.989 64.7838C129.268 66.6353 128.133 67.9901 125.603 68.3716Z" fill="white"/>
<path d="M155.683 66.2023L155.006 61.7124C153.51 63.1216 150.864 64.5622 148.243 64.9574C144.313 65.5502 142.537 63.8771 141.724 60.0229L154.688 58.0679L154.248 55.1517C153.026 47.0513 149.087 44.5208 143.713 45.3313C137.163 46.319 134.822 51.9272 135.883 58.9629C137.104 67.0632 141.583 70.412 148.448 69.3766C151.881 68.8588 154.272 67.5515 155.683 66.2023ZM144.279 49.6959C146.944 49.294 148.098 51.4397 148.538 54.3559L148.608 54.8187L141.11 55.9494C140.687 52.2259 141.704 50.0842 144.279 49.6959Z" fill="white"/>
<path d="M168.795 42.0223L170.184 51.2337L163.002 52.3168L161.613 43.1055L156.238 43.916L159.75 67.1987L165.124 66.3882L163.658 56.6678L170.84 55.5847L172.306 65.305L177.681 64.4945L174.169 41.2118L168.795 42.0223Z" fill="white"/>
</svg>
