<svg width="32" height="32" viewBox="0 0 32 32" fill="none" xmlns="http://www.w3.org/2000/svg">
<path d="M20.2032 16C20.2032 16.8313 19.9567 17.6439 19.4948 18.3352C19.033 19.0264 18.3765 19.5651 17.6085 19.8832C16.8405 20.2013 15.9953 20.2846 15.18 20.1224C14.3647 19.9602 13.6157 19.5599 13.0279 18.9721C12.4401 18.3843 12.0398 17.6353 11.8776 16.82C11.7154 16.0047 11.7987 15.1595 12.1168 14.3915C12.4349 13.6235 12.9736 12.967 13.6648 12.5052C14.3561 12.0433 15.1687 11.7968 16 11.7968C17.1144 11.7981 18.1827 12.2414 18.9707 13.0293C19.7586 13.8173 20.2019 14.8856 20.2032 16ZM29.1349 10.2206V21.7794C29.1327 23.7295 28.357 25.5991 26.9781 26.9781C25.5991 28.357 23.7295 29.1327 21.7794 29.1349H10.2206C8.27052 29.1327 6.40089 28.357 5.02194 26.9781C3.64299 25.5991 2.86732 23.7295 2.86511 21.7794V10.2206C2.86732 8.27052 3.64299 6.40089 5.02194 5.02194C6.40089 3.64299 8.27052 2.86732 10.2206 2.86511H21.7794C23.7295 2.86732 25.5991 3.64299 26.9781 5.02194C28.357 6.40089 29.1327 8.27052 29.1349 10.2206ZM22.3047 16C22.3047 14.753 21.935 13.5341 21.2422 12.4973C20.5494 11.4605 19.5648 10.6524 18.4127 10.1752C17.2607 9.69798 15.993 9.57313 14.77 9.8164C13.547 10.0597 12.4236 10.6601 11.5419 11.5419C10.6601 12.4236 10.0597 13.547 9.8164 14.77C9.57313 15.993 9.69798 17.2607 10.1752 18.4127C10.6524 19.5648 11.4605 20.5494 12.4973 21.2422C13.5341 21.935 14.753 22.3047 16 22.3047C17.6715 22.3029 19.2741 21.638 20.456 20.456C21.638 19.2741 22.3029 17.6715 22.3047 16ZM24.4063 9.16986C24.4063 8.85812 24.3139 8.55338 24.1407 8.29418C23.9675 8.03497 23.7213 7.83295 23.4333 7.71365C23.1453 7.59435 22.8284 7.56314 22.5226 7.62396C22.2169 7.68478 21.936 7.83489 21.7156 8.05533C21.4952 8.27576 21.3451 8.55661 21.2842 8.86236C21.2234 9.16811 21.2546 9.48503 21.3739 9.77304C21.4932 10.061 21.6953 10.3072 21.9545 10.4804C22.2137 10.6536 22.5184 10.746 22.8301 10.746C23.2482 10.746 23.6491 10.58 23.9447 10.2844C24.2403 9.9888 24.4063 9.58789 24.4063 9.16986Z" fill="#1C1C1C"/>
</svg>
