<svg width="72" height="72" viewBox="0 0 72 72" fill="none" xmlns="http://www.w3.org/2000/svg">
<path d="M45.4569 35.9998C45.4569 37.8702 44.9023 39.6987 43.8631 41.2539C42.8239 42.8091 41.3469 44.0212 39.6189 44.737C37.8908 45.4528 35.9893 45.6401 34.1548 45.2752C32.3203 44.9103 30.6352 44.0096 29.3126 42.687C27.99 41.3644 27.0893 39.6793 26.7244 37.8448C26.3595 36.0103 26.5468 34.1088 27.2625 32.3807C27.9783 30.6526 29.1905 29.1756 30.7457 28.1365C32.3009 27.0973 34.1293 26.5427 35.9998 26.5427C38.5071 26.5455 40.9109 27.5428 42.6838 29.3158C44.4567 31.0887 45.454 33.4925 45.4569 35.9998ZM65.5533 22.9962V49.0033C65.5483 53.3911 63.8031 57.5978 60.7004 60.7004C57.5978 63.8031 53.3911 65.5483 49.0033 65.5533H22.9962C18.6085 65.5483 14.4018 63.8031 11.2991 60.7004C8.19651 57.5978 6.45126 53.3911 6.44629 49.0033V22.9962C6.45126 18.6085 8.19651 14.4018 11.2991 11.2991C14.4018 8.19651 18.6085 6.45126 22.9962 6.44629H49.0033C53.3911 6.45126 57.5978 8.19651 60.7004 11.2991C63.8031 14.4018 65.5483 18.6085 65.5533 22.9962V22.9962ZM50.1855 35.9998C50.1855 33.1941 49.3535 30.4515 47.7947 28.1186C46.236 25.7858 44.0205 23.9676 41.4284 22.8939C38.8363 21.8202 35.984 21.5393 33.2323 22.0867C30.4805 22.634 27.9529 23.9851 25.969 25.969C23.9851 27.9529 22.634 30.4805 22.0867 33.2323C21.5393 35.984 21.8202 38.8363 22.8939 41.4284C23.9676 44.0205 25.7858 46.236 28.1186 47.7947C30.4515 49.3535 33.1941 50.1855 35.9998 50.1855C39.7608 50.1812 43.3665 48.6853 46.0259 46.0259C48.6853 43.3665 50.1812 39.7608 50.1855 35.9998V35.9998ZM54.914 20.632C54.914 19.9306 54.706 19.2449 54.3163 18.6617C53.9267 18.0785 53.3728 17.6239 52.7248 17.3555C52.0767 17.0871 51.3637 17.0169 50.6757 17.1537C49.9878 17.2905 49.3559 17.6283 48.8599 18.1243C48.3639 18.6202 48.0262 19.2522 47.8893 19.9401C47.7525 20.628 47.8227 21.3411 48.0911 21.9891C48.3596 22.6371 48.8141 23.191 49.3973 23.5807C49.9805 23.9704 50.6662 24.1784 51.3676 24.1784C52.3082 24.1784 53.2102 23.8047 53.8753 23.1397C54.5404 22.4746 54.914 21.5725 54.914 20.632Z" fill="white"/>
</svg>
