<svg width="1007" height="1007" viewBox="0 0 1007 1007" fill="none" xmlns="http://www.w3.org/2000/svg">
<path d="M960.827 506.757L995.79 508.377L995.445 515.819L979.278 525.531L994.468 536.896L994.165 543.439L959.202 541.819L959.462 536.225L987.981 537.547L970.679 524.231L989.222 512.928L960.603 511.601L960.827 506.757Z" fill="black"/>
<path d="M958.261 550.291L992.978 554.73L990.017 577.891L984.859 577.232L987.123 559.526L977.6 558.309L976.142 569.716L971.033 569.063L972.492 557.656L962.721 556.406L960.001 577.683L954.913 576.478L958.261 550.291Z" fill="black"/>
<path d="M958.055 579.754C958.361 582.425 959.007 583.48 960.034 584.668C966.557 592.275 986.784 596.433 983.301 612.97L982.436 617.08L953.129 610.908L952.129 615.654L938.43 612.768L939.46 607.876L948.218 609.72L953.648 583.936L944.89 582.091L945.921 577.199L958.055 579.754ZM957.714 589.135L954.283 605.428L978.893 610.611C980.194 600.308 963.453 595.607 957.714 589.135Z" fill="black"/>
<path d="M945.783 619.9L979.31 629.947L977.702 635.311L950.737 627.231L972.492 652.697L970.583 659.068L937.056 649.021L938.664 643.656L965.437 651.679L943.874 626.27L945.783 619.9Z" fill="black"/>
<path d="M925.27 679.944L935.708 680.173L941.151 666.303L933.307 659.465L935.224 654.577L963.002 679.604L960.426 686.167L923.005 685.716L925.27 679.944ZM945.073 669.722L940.926 680.287L957.549 680.634L945.073 669.722Z" fill="black"/>
<path d="M905.985 718.337C911.854 707.414 922.825 706.327 930.885 710.657C938.946 714.988 944.095 724.736 938.227 735.659C932.358 746.582 921.387 747.669 913.327 743.339C905.266 739.008 900.117 729.26 905.985 718.337ZM927.975 716.075C922.337 713.046 914.735 713.672 910.83 720.94C906.926 728.207 910.6 734.892 916.237 737.921C921.875 740.95 929.477 740.324 933.382 733.056C937.286 725.788 933.613 719.104 927.975 716.075Z" fill="black"/>
<path d="M872.626 773.038L896.795 789.953L907.804 774.222L883.635 757.308L886.845 752.72L915.521 772.788L898.09 797.694L869.415 777.626L872.626 773.038Z" fill="black"/>
<path d="M858.29 791.499L863.914 803.732C864.125 803.322 864.438 802.868 864.822 802.407C867.158 799.602 870.436 798.948 875.308 800.99C877.927 802.064 879.7 802.826 881.762 803.632C885.635 805.232 887.607 805.442 889.655 802.984C889.847 802.753 890.103 802.446 890.257 802.183L893.215 804.647C892.844 805.249 892.383 806.037 891.839 806.69C888.415 810.801 885.886 811.493 878.504 808.402C877.358 807.903 875.995 807.353 872.749 806.016C869.65 804.736 866.769 803.898 865.425 805.511C865.297 805.665 865.207 805.851 865.079 806.005L874.719 826.463L871.007 830.919L854.578 795.956L858.29 791.499Z" fill="black"/>
<path d="M833.435 819.604L854.667 840.228L864.352 830.258L868.225 834.02L844.675 858.265L841.185 854.108L850.765 844.245L829.533 823.621L833.435 819.604Z" fill="black"/>
<path d="M814.683 838.266L837.856 864.496L820.357 879.956L816.914 876.059L830.291 864.24L823.935 857.046L815.317 864.66L811.907 860.8L820.525 853.186L814.004 845.804L797.929 860.006L794.898 855.745L814.683 838.266Z" fill="black"/>
<path d="M790.871 859.392L811.563 887.621L807.046 890.931L789.606 867.139L778.274 875.445L795.715 899.238L791.198 902.548L773.758 878.756L762.507 887.003L779.947 910.796L775.431 914.106L754.739 885.878L790.871 859.392Z" fill="black"/>
<path d="M747.59 889.943L765.614 919.946L745.597 931.97L742.92 927.512L758.221 918.321L753.278 910.091L743.42 916.013L740.768 911.599L750.626 905.677L745.553 897.233L727.166 908.279L724.96 903.538L747.59 889.943Z" fill="black"/>
<path d="M705.083 912.793C714.268 908.245 724.631 911.484 729.378 921.073C734.126 930.662 730.485 941.001 721.299 945.549C712.875 949.719 704.567 947.137 699.696 940.566L704.132 938.37C707.759 942.767 713.569 943.796 718.498 941.356C724.95 938.162 727.283 930.814 723.822 923.824C720.361 916.834 713.237 914.502 706.785 917.697C702.125 920.004 699.222 924.621 700.142 929.522L695.661 931.74C693.7 924.286 697.196 916.697 705.083 912.793Z" fill="black"/>
<path d="M674.081 927.481L684.998 954.995L697.918 949.869L699.909 954.888L668.492 967.353L667.011 962.131L679.792 957.06L668.876 929.546L674.081 927.481Z" fill="black"/>
<path d="M649.461 936.73L659.761 970.18L647.385 973.992C644.804 974.786 642.147 974.82 639.908 973.835C637.981 973.016 636.36 971.318 635.462 968.403C634.358 964.819 635.7 962.209 637.35 960.602L637.276 960.363C632.656 960.478 629.505 957.891 628.298 953.972C627.091 950.054 627.727 946.51 630.557 943.807C631.997 942.37 633.453 941.66 637.706 940.35L649.461 936.73ZM645.536 943.014L639.372 944.912C636.935 945.662 635.189 946.618 634.303 947.99C633.55 949.111 633.447 950.817 633.918 952.346C634.404 953.923 635.478 955.371 637.062 955.93C638.536 956.47 640.312 956.289 642.653 955.568L648.818 953.67L645.536 943.014ZM650.039 957.636L645.117 959.152C643.684 959.593 642.39 960.149 641.596 960.968C640.221 962.281 640.269 964.307 640.711 965.74C641.373 967.891 642.568 968.883 644.127 969.188C645.244 969.419 646.626 969.15 648.06 968.709L652.982 967.193L650.039 957.636Z" fill="black"/>
<path d="M617.768 946.22L625.372 980.384L619.906 981.601L613.79 954.123L602.189 985.544L595.698 986.989L588.094 952.825L593.56 951.608L599.633 978.89L611.277 947.665L617.768 946.22Z" fill="black"/>
<path d="M578.401 953.892C580.283 953.63 580.056 953.813 581.131 953.915L581.621 957.431L580.829 957.542C577.412 958.019 577.035 961.1 575.969 964.682C574.976 968.052 573.413 970.239 570.127 971.656C571.188 971.66 572.256 971.713 573.294 971.921C576.679 972.66 579.586 974.678 580.249 979.432C580.83 983.592 579.278 986.938 576.217 988.88C574.176 990.175 571.671 990.676 569.047 991.042L559.093 992.431L554.255 957.767L559.801 956.993L561.951 972.394L562.694 972.29C568.091 971.537 569.682 967.377 571.024 963.252C572.824 957.7 573.548 954.57 578.401 953.892ZM574.754 979.846C574.415 977.419 573.267 976.065 571.416 975.465C570.251 975.072 568.526 975.01 567.189 975.197L562.435 975.86L563.99 987.002L568.744 986.339C570.725 986.062 572.353 985.431 573.417 984.374C574.524 983.26 575.023 981.777 574.754 979.846Z" fill="black"/>
<path d="M524.171 960.004L534.232 972.822L542.481 958.801L548.518 958.405L537.405 976.873L550.413 993.356L543.927 993.782L534.247 981.44L526.514 994.925L520.477 995.322L531.188 977.582L517.685 960.43L524.171 960.004Z" fill="black"/>
<path d="M500.659 964.178C498.072 964.91 497.134 965.717 496.127 966.922C489.665 974.581 488.809 995.213 471.927 994.431L467.732 994.236L469.118 964.319L464.273 964.094L464.922 950.109L469.916 950.341L469.502 959.281L495.824 960.501L496.238 951.56L501.233 951.792L500.659 964.178ZM491.344 965.349L474.712 964.578L473.548 989.701C483.926 989.331 485.878 972.053 491.344 965.349Z" fill="black"/>
<path d="M460.747 958.103C461.888 958.249 462.91 958.531 463.542 958.712L463.06 962.482C458.001 961.835 455.025 966.192 451.751 972.478C447.673 980.324 443.096 991.685 430.002 990.011L425.935 989.492L430.374 954.774L435.929 955.484L432.092 985.49C439.558 985.84 443.228 977.639 447.156 970.177C450.685 963.47 453.803 957.215 460.747 958.103Z" fill="black"/>
<path d="M421.044 953.156L413.701 987.377L408.225 986.202L414.132 958.679L390.479 982.394L383.977 980.999L391.321 946.778L396.796 947.953L390.932 975.281L414.542 951.761L421.044 953.156Z" fill="black"/>
<path d="M358.717 937.067L354.317 951.355L372.667 957.005L377.067 942.717L382.419 944.365L372.119 977.815L366.767 976.167L371.048 962.262L352.699 956.611L348.417 970.517L343.065 968.869L353.365 935.419L358.717 937.067Z" fill="black"/>
<path d="M329.747 925.289C341.203 930.034 343.384 940.841 339.883 949.294C336.381 957.748 327.198 963.848 315.742 959.103C304.286 954.358 302.105 943.551 305.606 935.098C309.108 926.644 318.291 920.544 329.747 925.289ZM334.201 946.941C336.65 941.028 335.265 933.527 327.643 930.37C320.02 927.213 313.737 931.538 311.288 937.451C308.839 943.364 310.224 950.865 317.846 954.022C325.469 957.179 331.752 952.854 334.201 946.941Z" fill="black"/>
<path d="M305.649 915.691L289.427 946.705L284.465 944.11L297.512 919.166L268.382 935.697L262.489 932.615L278.711 901.602L283.673 904.197L270.719 928.964L299.756 912.609L305.649 915.691ZM279.12 950.229L275.442 948.306C275.804 946.859 275.951 944.96 273.824 943.848C271.697 942.736 270.31 943.985 269.373 945.131L265.695 943.208C268.349 939.968 271.976 939.722 275.078 941.344C278.445 943.105 280.311 946.225 279.12 950.229Z" fill="black"/>
<path d="M258.842 889.578L239.301 918.616L228.558 911.386C226.317 909.879 224.621 907.833 223.979 905.473C223.405 903.459 223.707 901.131 225.409 898.601C227.503 895.489 230.376 894.892 232.663 895.165L232.803 894.958C229.809 891.436 229.84 887.359 232.129 883.958C234.418 880.556 237.573 878.822 241.454 879.325C243.478 879.541 244.945 880.227 248.637 882.712L258.842 889.578ZM251.488 890.476L246.137 886.875C244.021 885.451 242.18 884.694 240.557 884.868C239.211 884.987 237.82 885.979 236.927 887.307C236.005 888.676 235.554 890.421 236.116 892.004C236.623 893.49 237.879 894.758 239.912 896.125L245.263 899.726L251.488 890.476ZM242.946 903.169L238.673 900.294C237.429 899.457 236.184 898.8 235.047 898.698C233.162 898.454 231.617 899.765 230.78 901.009C229.523 902.876 229.503 904.429 230.246 905.833C230.768 906.847 231.846 907.753 233.09 908.591L237.363 911.466L242.946 903.169Z" fill="black"/>
<path d="M208.467 851.276C217.907 859.316 216.657 870.27 210.724 877.236C204.792 884.202 194.177 887.181 184.737 879.141C175.296 871.101 176.547 860.148 182.479 853.182C188.412 846.215 199.026 843.237 208.467 851.276ZM206.042 873.248C210.192 868.376 211.182 860.813 204.901 855.464C198.62 850.115 191.311 852.297 187.161 857.169C183.012 862.042 182.022 869.605 188.303 874.954C194.584 880.303 201.893 878.121 206.042 873.248Z" fill="black"/>
<path d="M189.212 840.363C186.816 839.143 185.579 839.099 184.022 839.3C174.078 840.536 159.441 855.102 147.578 843.065L144.63 840.074L165.961 819.051L162.556 815.596L172.527 805.769L176.037 809.33L169.663 815.613L188.159 834.38L194.534 828.097L198.043 831.658L189.212 840.363ZM181.579 834.898L169.892 823.039L151.979 840.693C159.85 847.468 173.014 836.108 181.579 834.898Z" fill="black"/>
<path d="M162.21 807.61L135.317 830.01L131.733 825.708L153.363 807.691L120.117 811.762L115.861 806.652L142.754 784.252L146.338 788.555L124.862 806.443L157.954 802.5L162.21 807.61Z" fill="black"/>
<path d="M123.208 756.962L110.959 765.534L121.968 781.264L134.217 772.692L137.427 777.281L108.752 797.349L105.541 792.761L117.462 784.418L106.453 768.688L94.5325 777.03L91.3216 772.442L119.997 752.374L123.208 756.962Z" fill="black"/>
<path d="M106.814 737.957C104.858 736.113 103.683 735.723 102.133 735.477C92.2425 733.866 74.099 743.728 66.1005 728.84L64.1127 725.141L90.496 710.966L88.2006 706.693L100.533 700.067L102.9 704.472L95.0156 708.708L107.487 731.92L115.371 727.684L117.737 732.089L106.814 737.957ZM101.027 730.566L93.1464 715.899L70.9915 727.802C76.6387 736.517 92.4668 729.319 101.027 730.566Z" fill="black"/>
<path d="M90.0237 698.47L57.9956 712.584L48.5796 691.216L53.3381 689.119L60.5361 705.454L69.321 701.583L64.6836 691.059L69.3963 688.982L74.0337 699.506L83.0473 695.534L74.3975 675.905L79.3778 674.311L90.0237 698.47Z" fill="black"/>
<path d="M69.1051 645.758L54.9932 650.693L61.3313 668.817L75.4433 663.882L77.2919 669.168L44.2539 680.722L42.4053 675.436L56.1396 670.633L49.8015 652.509L36.0672 657.312L34.2185 652.026L67.2565 640.472L69.1051 645.758Z" fill="black"/>
<path d="M64.8877 632.315L31.0716 641.341L29.6274 635.931L43.4437 632.243L41.9737 626.735C41.0324 623.209 40.8257 620.884 41.3051 618.996C42.0998 615.575 44.4117 612.992 48.518 611.896C53.2039 610.645 56.8888 612.042 59.3277 615.169C60.5036 616.666 61.4835 619.561 62.2571 622.46L64.8877 632.315ZM58.9025 628.116L57.5227 622.947C56.9038 620.628 56.459 619.35 55.4603 618.323C54.3134 617.128 52.6804 616.632 50.3615 617.251C48.0427 617.87 46.8739 619.114 46.4749 620.721C46.1209 622.109 46.3725 623.439 46.9914 625.758L48.3712 630.927L58.9025 628.116Z" fill="black"/>
<path d="M51.9649 558.228C47.7801 559.469 42.7681 563.121 39.1163 569.384C37.3095 572.463 36.2534 575.506 35.9862 578.406L33.9002 578.648C31.9074 573.192 27.4925 568.117 21.9673 565.185C19.177 563.697 16.5113 562.849 13.8213 562.658L13.579 560.572C18.4972 559.145 23.6099 554.625 26.7234 548.928C28.2611 546.132 29.1912 543.305 29.4699 540.505L31.5559 540.262C33.3385 545.642 38.9996 551.478 44.3851 554.074C47.1027 555.369 49.5466 556.042 51.7226 556.142L51.9649 558.228Z" fill="black"/>
<path d="M46.2423 501.922L11.2739 500.437L11.59 492.993L27.7194 483.219L12.4855 471.912L12.7634 465.368L47.7319 466.854L47.4943 472.448L18.97 471.237L36.3234 484.485L17.824 495.86L46.4482 497.076L46.2423 501.922Z" fill="black"/>
<path d="M48.5907 458.73L13.8565 454.425L16.7286 431.252L21.8892 431.892L19.6935 449.606L29.2206 450.787L30.6352 439.375L35.7461 440.008L34.3315 451.421L44.1067 452.632L46.7452 431.345L51.838 432.531L48.5907 458.73Z" fill="black"/>
<path d="M48.7357 428.845C48.4192 426.175 47.7689 425.122 46.737 423.939C40.1858 416.356 19.9427 412.276 23.3623 395.725L24.2122 391.612L53.5426 397.672L54.524 392.923L68.2344 395.756L67.2227 400.652L58.4578 398.841L53.126 424.646L61.8909 426.457L60.8792 431.354L48.7357 428.845ZM49.0405 419.462L52.4095 403.157L27.7798 398.068C26.5179 408.375 43.2763 413.012 49.0405 419.462Z" fill="black"/>
<path d="M60.7163 389.103L27.1516 379.183L28.7388 373.813L55.7344 381.792L33.883 356.407L35.7679 350.03L69.3326 359.95L67.7454 365.32L40.9415 357.399L62.6011 382.726L60.7163 389.103Z" fill="black"/>
<path d="M80.8433 329.267L70.4047 329.077L65.0136 342.968L72.8833 349.777L70.9837 354.671L43.1129 329.748L45.6637 323.176L83.0865 323.487L80.8433 329.267ZM61.0788 339.564L65.1854 328.983L48.5619 328.699L61.0788 339.564Z" fill="black"/>
<path d="M99.1241 292.218C93.3364 303.185 82.3737 304.353 74.2816 300.082C66.1894 295.811 60.9678 286.101 66.7556 275.135C72.5434 264.169 83.5061 263 91.5982 267.271C99.6903 271.542 104.912 281.252 99.1241 292.218ZM77.1521 294.643C82.8122 297.63 90.4093 296.947 94.26 289.651C98.1108 282.355 94.3877 275.698 88.7277 272.71C83.0676 269.723 75.4705 270.406 71.6197 277.702C67.769 284.998 71.492 291.656 77.1521 294.643Z" fill="black"/>
<path d="M132.69 236.272L108.459 219.446L97.5082 235.216L121.739 252.042L118.545 256.642L89.7965 236.679L107.136 211.709L135.884 231.672L132.69 236.272Z" fill="black"/>
<path d="M145.985 218.795L140.272 206.604C140.064 207.015 139.754 207.472 139.373 207.936C137.058 210.757 133.785 211.435 128.898 209.429C126.271 208.373 124.492 207.625 122.425 206.834C118.54 205.262 116.567 205.066 114.537 207.54C114.346 207.771 114.093 208.081 113.941 208.344L110.965 205.902C111.332 205.297 111.787 204.506 112.326 203.849C115.72 199.714 118.243 199.003 125.648 202.04C126.797 202.531 128.165 203.071 131.421 204.385C134.529 205.642 137.416 206.459 138.748 204.835C138.875 204.681 138.963 204.494 139.09 204.34L129.302 183.952L132.982 179.469L149.664 214.312L145.985 218.795Z" fill="black"/>
<path d="M171.612 189.35L150.305 168.803L140.656 178.809L136.769 175.061L160.231 150.73L163.736 154.874L154.192 164.772L175.499 185.319L171.612 189.35Z" fill="black"/>
<path d="M190.745 170.094L167.477 143.949L184.919 128.425L188.376 132.31L175.042 144.177L181.425 151.348L190.015 143.703L193.439 147.55L184.848 155.195L191.397 162.553L207.42 148.293L210.466 152.543L190.745 170.094Z" fill="black"/>
<path d="M213.586 149.474L192.791 121.321L197.295 117.994L214.823 141.723L226.124 133.375L208.597 109.646L213.101 106.319L230.628 130.048L241.849 121.76L224.322 98.031L228.826 94.7038L249.621 122.856L213.586 149.474Z" fill="black"/>
<path d="M255.817 119.155L237.683 89.2188L257.655 77.1213L260.349 81.569L245.082 90.817L250.056 99.0281L259.892 93.07L262.56 97.4749L252.724 103.433L257.827 111.858L276.174 100.745L278.397 105.477L255.817 119.155Z" fill="black"/>
<path d="M299.821 95.1228C290.652 99.7045 280.278 96.5044 275.495 86.9328C270.712 77.3613 274.315 67.0091 283.484 62.4275C291.893 58.2257 300.21 60.7769 305.105 67.3298L300.677 69.5424C297.034 65.1588 291.22 64.1512 286.3 66.6096C279.86 69.828 277.555 77.1841 281.041 84.1615C284.528 91.1388 291.66 93.4438 298.101 90.2254C302.752 87.9011 305.638 83.2731 304.7 78.3759L309.173 76.1409C311.161 83.5875 307.693 91.1893 299.821 95.1228Z" fill="black"/>
<path d="M328.877 81.0089L317.858 53.5364L304.957 58.7109L302.947 53.6991L334.318 41.1164L335.818 46.333L323.056 51.4517L334.075 78.9242L328.877 81.0089Z" fill="black"/>
<path d="M354.77 71.0356L344.343 37.6247L356.705 33.7669C359.283 32.9626 361.94 32.9189 364.183 33.8951C366.113 34.7072 367.741 36.3991 368.649 39.3106C369.766 42.8903 368.435 45.5057 366.791 47.1187L366.865 47.3574C371.486 47.2249 374.646 49.8003 375.868 53.7142C377.089 57.628 376.467 61.1742 373.647 63.8874C372.212 65.3305 370.759 66.0458 366.511 67.3715L354.77 71.0356ZM358.671 64.7376L364.828 62.8161C367.262 62.0565 369.004 61.0938 369.885 59.7191C370.634 58.5949 370.73 56.8888 370.253 55.3614C369.762 53.7863 368.683 52.3422 367.096 51.7898C365.62 51.2553 363.845 51.4425 361.506 52.1724L355.349 54.0938L358.671 64.7376ZM354.113 50.1323L359.029 48.5981C360.461 48.1512 361.753 47.591 362.543 46.768C363.913 45.4502 363.857 43.4249 363.41 41.993C362.74 39.8452 361.541 38.8574 359.982 38.5585C358.863 38.3314 357.482 38.6053 356.05 39.0521L351.134 40.5863L354.113 50.1323Z" fill="black"/>
<path d="M385.796 61.4642L378.061 27.3295L383.523 26.092L389.743 53.5461L401.224 22.0812L407.71 20.6117L415.444 54.7464L409.983 55.9839L403.806 28.7249L392.281 59.9947L385.796 61.4642Z" fill="black"/>
<path d="M424.38 53.5962C422.499 53.8661 422.725 53.6821 421.651 53.5838L421.146 50.0698L421.938 49.9562C425.353 49.4661 425.719 46.3829 426.77 42.7972C427.751 39.4237 429.306 37.2308 432.586 35.8004C431.525 35.801 430.457 35.7522 429.418 35.5478C426.03 34.8215 423.116 32.8152 422.434 28.0638C421.837 23.9064 423.377 20.5538 426.43 18.6003C428.466 17.2979 430.969 16.7873 433.592 16.4109L443.54 14.9834L448.511 49.6286L442.968 50.424L440.759 35.0316L440.017 35.1382C434.622 35.9123 433.048 40.0781 431.721 44.2084C429.943 49.7674 429.23 52.9003 424.38 53.5962ZM427.928 27.6291C428.276 30.0543 429.429 31.4041 431.282 31.9969C432.449 32.3851 434.175 32.4406 435.511 32.2489L440.262 31.5671L438.664 20.4312L433.913 21.1129C431.933 21.397 430.307 22.0344 429.247 23.0957C428.145 24.2136 427.651 25.6989 427.928 27.6291Z" fill="black"/>
<path d="M478.216 47.1116L468.105 34.3324L459.911 48.3848L453.875 48.8046L464.917 30.2938L451.846 13.8612L458.33 13.4102L468.057 25.7149L475.738 12.1994L481.773 11.7797L471.131 29.5609L484.701 46.6606L478.216 47.1116Z" fill="black"/>
<path d="M503.349 42.5939C505.933 41.8529 506.868 41.0418 507.87 39.8333C514.302 32.1493 515.079 11.5137 531.963 12.2309L536.16 12.4091L534.889 42.3321L539.734 42.5379L539.14 56.5253L534.145 56.3131L534.525 47.3712L508.198 46.253L507.818 55.1949L502.823 54.9827L503.349 42.5939ZM512.659 41.3879L529.294 42.0945L530.361 16.9671C519.984 17.3771 518.099 34.6627 512.659 41.3879Z" fill="black"/>
<path d="M542.035 48.2532C540.894 48.1117 539.87 47.8337 539.238 47.6545L539.705 43.8833C544.766 44.5107 547.726 40.1416 550.976 33.8434C555.023 25.9816 559.557 14.6029 572.657 16.2266L576.726 16.7309L572.421 51.4651L566.863 50.7763L570.584 20.756C563.117 20.4351 559.479 28.6499 555.58 36.1271C552.076 42.8472 548.982 49.1142 542.035 48.2532Z" fill="black"/>
<path d="M581.151 52.6956L588.364 18.4469L593.843 19.6009L588.042 47.1467L611.604 23.3413L618.111 24.7117L610.898 58.9604L605.419 57.8064L611.178 30.4563L587.658 54.066L581.151 52.6956Z" fill="black"/>
<path d="M643.64 68.2825L647.986 53.978L629.615 48.397L625.269 62.7015L619.911 61.0737L630.085 27.585L635.443 29.2128L631.214 43.1345L649.585 48.7155L653.814 34.7938L659.172 36.4215L648.998 69.9103L643.64 68.2825Z" fill="black"/>
<path d="M672.608 79.6191C661.116 74.9599 658.855 64.1696 662.293 55.6901C665.731 47.2105 674.868 41.0418 686.36 45.701C697.851 50.3601 700.113 61.1505 696.675 69.63C693.237 78.1095 684.099 84.2783 672.608 79.6191ZM667.992 58.0009C665.588 63.9319 667.029 71.4223 674.674 74.5221C682.32 77.622 688.57 73.2502 690.975 67.3192C693.38 61.3882 691.939 53.8978 684.293 50.7979C676.648 47.6981 670.397 52.0698 667.992 58.0009Z" fill="black"/>
<path d="M699.114 90.0011L715.221 58.9275L720.193 61.5046L707.238 86.4966L736.306 69.8572L742.21 72.9175L726.103 103.991L721.132 101.414L733.994 76.5995L705.018 93.0614L699.114 90.0011ZM725.515 55.3652L729.199 57.2751C728.843 58.7235 728.703 60.6223 730.834 61.7268C732.965 62.8313 734.347 61.5767 735.281 60.4274L738.965 62.3373C736.324 65.5861 732.697 65.8464 729.59 64.2357C726.216 62.4869 724.338 59.3735 725.515 55.3652Z" fill="black"/>
<path d="M746.363 116.054L765.796 86.9447L776.567 94.1351C778.812 95.6343 780.517 97.674 781.167 100.032C781.748 102.043 781.455 104.373 779.762 106.909C777.68 110.028 774.809 110.636 772.521 110.371L772.382 110.579C775.389 114.09 775.372 118.167 773.096 121.577C770.819 124.987 767.67 126.732 763.788 126.244C761.763 126.035 760.294 125.354 756.593 122.883L746.363 116.054ZM753.713 115.129L759.078 118.711C761.198 120.127 763.042 120.877 764.665 120.697C766.01 120.574 767.398 119.576 768.286 118.245C769.202 116.873 769.647 115.126 769.079 113.545C768.567 112.061 767.306 110.798 765.269 109.437L759.904 105.856L753.713 115.129ZM762.209 102.405L766.492 105.264C767.739 106.097 768.987 106.75 770.124 106.847C772.01 107.084 773.55 105.768 774.383 104.52C775.632 102.649 775.647 101.096 774.899 99.6949C774.373 98.6823 773.292 97.7802 772.044 96.9473L767.761 94.0878L762.209 102.405Z" fill="black"/>
<path d="M797.252 154.406C787.783 146.4 788.993 135.442 794.9 128.455C800.807 121.467 811.411 118.449 820.881 126.455C830.35 134.46 829.14 145.418 823.233 152.406C817.326 159.394 806.722 162.411 797.252 154.406ZM799.597 132.425C795.465 137.313 794.503 144.879 800.803 150.205C807.103 155.531 814.404 153.323 818.536 148.435C822.668 143.548 823.63 135.981 817.33 130.655C811.03 125.329 803.729 127.537 799.597 132.425Z" fill="black"/>
<path d="M816.548 165.235C818.948 166.446 820.185 166.486 821.741 166.28C831.681 165.007 846.265 150.388 858.172 162.381L861.131 165.362L839.876 186.463L843.293 189.905L833.358 199.768L829.835 196.22L836.187 189.914L817.622 171.214L811.271 177.52L807.748 173.972L816.548 165.235ZM824.2 170.673L835.931 182.489L853.779 164.77C845.884 158.023 832.761 169.431 824.2 170.673Z" fill="black"/>
<path d="M843.424 197.585L870.235 175.087L873.835 179.376L852.271 197.471L885.502 193.28L889.777 198.374L862.965 220.872L859.366 216.582L880.776 198.616L847.699 202.679L843.424 197.585Z" fill="black"/>
<path d="M881.874 246.963L894.091 238.347L883.025 222.657L870.808 231.273L867.58 226.697L896.182 206.524L899.409 211.101L887.519 219.487L898.586 235.177L910.476 226.791L913.703 231.367L885.102 251.54L881.874 246.963Z" fill="black"/>
<path d="M899.224 267.094C901.187 268.931 902.363 269.317 903.915 269.557C913.811 271.131 931.918 261.203 939.971 276.061L941.973 279.753L915.642 294.025L917.953 298.289L905.645 304.961L903.262 300.565L911.131 296.3L898.574 273.134L890.705 277.399L888.323 273.003L899.224 267.094ZM905.039 274.464L912.973 289.102L935.084 277.117C929.405 268.423 913.603 275.68 905.039 274.464Z" fill="black"/>
<path d="M915.322 304.687L947.244 290.335L956.819 311.631L952.077 313.764L944.757 297.483L936.001 301.42L940.717 311.909L936.02 314.02L931.304 303.532L922.32 307.571L931.116 327.135L926.148 328.765L915.322 304.687Z" fill="black"/>
<path d="M937.389 359.308L951.483 354.32L945.076 336.22L930.983 341.208L929.115 335.929L962.109 324.251L963.977 329.53L950.261 334.385L956.667 352.485L970.384 347.63L972.252 352.909L939.258 364.587L937.389 359.308Z" fill="black"/>
<path d="M941.501 372.1L975.283 362.945L976.748 368.35L962.946 372.09L964.436 377.592C965.391 381.115 965.607 383.44 965.134 385.329C964.353 388.752 962.051 391.345 957.948 392.456C953.267 393.725 949.577 392.342 947.126 389.225C945.945 387.732 944.954 384.84 944.169 381.945L941.501 372.1ZM947.503 376.275L948.902 381.439C949.53 383.756 949.979 385.032 950.982 386.056C952.133 387.246 953.768 387.736 956.085 387.108C958.401 386.48 959.565 385.232 959.958 383.623C960.307 382.234 960.05 380.905 959.422 378.588L958.023 373.424L947.503 376.275Z" fill="black"/>
<path d="M954.894 446.767C959.074 445.51 964.072 441.838 967.699 435.561C969.494 432.475 970.539 429.429 970.795 426.528L972.88 426.277C974.894 431.726 979.328 436.784 984.864 439.695C987.66 441.172 990.329 442.01 993.02 442.19L993.27 444.275C988.358 445.721 983.262 450.261 980.171 455.97C978.644 458.772 977.725 461.602 977.457 464.404L975.372 464.654C973.568 459.281 967.885 453.467 962.49 450.891C959.767 449.607 957.32 448.944 955.144 448.852L954.894 446.767Z" fill="black"/>
</svg>
