<?xml version="1.0" encoding="utf-8"?>
<!-- Generator: Adobe Illustrator 28.0.0, SVG Export Plug-In . SVG Version: 6.00 Build 0)  -->
<svg version="1.1" id="Layer_1" xmlns="http://www.w3.org/2000/svg" xmlns:xlink="http://www.w3.org/1999/xlink" x="0px" y="0px"
	 viewBox="0 0 32 32" style="enable-background:new 0 0 32 32;" xml:space="preserve">
<style type="text/css">
	.st0{fill:#1C1C1C;stroke:#1C1C1C;stroke-width:0.5738;}
</style>
<path class="st0" d="M15.1,28c0,0.1,0,0.2-0.1,0.2c0,0-0.1,0.1-0.2,0.1c0,0,0,0,0,0h0C8.9,27.7,4.3,23,3.7,17.1c0-0.1,0-0.1,0.1-0.2
	v0c0,0,0.1-0.1,0.1-0.1c0,0,0,0,0.1,0h0c5.1,0.1,7.8,0.9,9.3,2.6c0.7,0.9,1.2,2,1.5,3.4C15,24.3,15.1,26,15.1,28z"/>
<path class="st0" d="M28.3,17.1c0,0.1,0,0.2,0,0.4c-0.7,5.6-5.1,10.1-10.7,10.7h0c-0.1,0-0.2,0-0.3,0h0c-0.1,0-0.1,0-0.2-0.1
	s-0.1-0.1-0.1-0.2c0-2,0.1-3.7,0.4-5.1c0.3-1.4,0.7-2.5,1.5-3.4c1.4-1.7,4.1-2.6,9-2.6c0.1,0,0.2,0,0.3,0c0.1,0,0.2,0,0.2,0.1
	C28.2,17,28.3,17,28.3,17.1z"/>
<path class="st0" d="M28.3,14.9L28.3,14.9c0,0.1,0,0.2-0.1,0.2c0,0.1-0.1,0.1-0.2,0.1h0c-5.1-0.1-7.8-0.9-9.3-2.7
	c-0.7-0.9-1.2-2-1.5-3.4C17,7.7,16.9,6,16.8,4v0c0-0.1,0-0.1,0.1-0.2c0,0,0.1-0.1,0.2-0.1C23,4.3,27.7,9,28.3,14.9z"/>
<path class="st0" d="M15.1,4L15.1,4c0,2-0.1,3.7-0.4,5.1c-0.3,1.4-0.7,2.5-1.5,3.4c-1.5,1.7-4.2,2.6-9.3,2.7c0,0,0,0,0,0
	c-0.1,0-0.1,0-0.2-0.1c0,0-0.1-0.1-0.1-0.2C4.3,9,8.9,4.3,14.8,3.7c0.1,0,0.1,0,0.2,0.1C15.1,3.9,15.1,3.9,15.1,4z"/>
</svg>
