<svg width="32" height="32" viewBox="0 0 32 32" fill="none" xmlns="http://www.w3.org/2000/svg">
<path fill-rule="evenodd" clip-rule="evenodd" d="M20.7811 13.0377C20.7811 17.1559 17.4426 20.4943 13.3245 20.4943C9.20627 20.4943 5.86782 17.1559 5.86782 13.0377C5.86782 8.91952 9.20627 5.58108 13.3245 5.58108C17.4426 5.58108 20.7811 8.91952 20.7811 13.0377ZM18.2777 20.9349C16.8427 21.8368 15.1445 22.3585 13.3245 22.3585C8.17672 22.3585 4.00366 18.1854 4.00366 13.0377C4.00366 7.88998 8.17672 3.71692 13.3245 3.71692C18.4722 3.71692 22.6452 7.88998 22.6452 13.0377C22.6452 15.1675 21.9309 17.1304 20.7289 18.6999L27.1405 26.7087L26.4171 27.4321L18.2777 20.9349Z" fill="#1C1C1C"/>
</svg>
