<svg width="276" height="48" viewBox="0 0 276 48" fill="none" xmlns="http://www.w3.org/2000/svg">
<path d="M83.4338 29.7803C83.4338 33.4243 80.0411 36.0631 75.2662 36.0631H64.083V13.4453H74.8892C79.5385 13.4453 82.8055 15.9584 82.8055 19.4767C82.8055 21.8641 81.549 23.372 79.6641 24.2516C81.6746 25.0055 83.4338 27.0159 83.4338 29.7803ZM68.9835 17.5919V22.4924H74.7636C76.5228 22.4924 77.6537 21.4872 77.6537 20.105C77.6537 18.7228 76.3971 17.5919 74.7636 17.5919H68.9835ZM75.2662 31.9165C77.1511 31.9165 78.5333 30.7856 78.5333 29.1521C78.5333 27.5186 77.2767 26.3877 75.2662 26.3877H68.9835V31.9165H75.2662Z" fill="white"/>
<path d="M101.905 35.9374L94.1148 27.016H92.8582V35.9374H87.832V13.4453H92.8582V22.1154H94.1148L101.654 13.4453L107.56 13.4453L98.1357 24.2516L108.439 35.9374H101.905Z" fill="white"/>
<path d="M108.439 24.7538C108.439 17.9684 113.466 13.0679 120.502 13.0679C127.539 13.0679 132.565 17.9684 132.565 24.7538C132.565 31.5391 127.539 36.4396 120.502 36.4396C113.466 36.4396 108.439 31.5391 108.439 24.7538ZM127.288 24.7538C127.288 20.4815 124.523 17.5915 120.502 17.5915C116.481 17.5915 113.717 20.4815 113.717 24.7538C113.717 29.026 116.481 31.9161 120.502 31.9161C124.523 31.9161 127.288 29.026 127.288 24.7538Z" fill="white"/>
<path d="M151.79 13.4453H156.817V35.9374H151.79V26.8903H141.738V35.9374H136.712V13.4453H141.738V22.3667H151.79V13.4453Z" fill="white"/>
<path d="M167.623 35.9374V17.9688H159.832V13.4453L180.314 13.4453V17.9688H172.523V35.9374H167.623Z" fill="white"/>
<path d="M201.926 23.3716V35.937H198.282L197.277 32.4187C196.146 34.3035 193.759 36.4396 190.115 36.4396C185.591 36.4396 182.324 33.4239 182.324 29.2773C182.324 25.1307 185.591 22.2407 192.251 22.2407H197.151C196.9 19.3506 195.392 17.3402 192.628 17.3402C190.366 17.3402 188.858 18.5967 188.104 19.9789L183.581 19.225C184.712 15.3297 188.607 13.0679 192.879 13.0679C198.408 13.0679 201.926 16.8375 201.926 23.3716ZM197.026 26.136H192.377C188.607 26.136 187.35 27.3925 187.35 29.026C187.35 30.9108 188.858 32.1674 191.371 32.1674C194.638 32.1674 197.026 29.78 197.026 26.136Z" fill="white"/>
<path d="M221.276 35.9379L213.486 27.0165H212.229V35.9379H207.203V13.4458H212.229V22.1159H213.486L221.025 13.4458L226.931 13.4458L217.507 24.2521L227.81 35.9379H221.276Z" fill="white"/>
<path d="M236.857 35.9379V17.9693H229.067V13.4458L249.549 13.4458V17.9693H241.758V35.9379H236.857Z" fill="white"/>
<path d="M274.68 26.136H256.586C257.089 29.6543 259.602 31.9161 263.371 31.9161C266.01 31.9161 268.021 30.7852 269.152 29.1517L273.801 29.9056C272.167 34.1779 267.769 36.4396 262.994 36.4396C256.209 36.4396 251.309 31.5391 251.309 24.7538C251.309 17.9684 256.209 13.0679 262.994 13.0679C269.78 13.0679 274.68 17.9684 274.68 24.5025C274.806 25.1307 274.68 25.6334 274.68 26.136ZM256.963 22.2407H269.403C268.523 19.4763 266.261 17.4658 263.12 17.4658C260.104 17.3402 257.717 19.3506 256.963 22.2407Z" fill="white"/>
<path fill-rule="evenodd" clip-rule="evenodd" d="M3.37413 3.37413C0 6.74826 0 12.1788 0 23.04L0 24.96C0 35.8212 0 41.2517 3.37413 44.6259C6.74826 48 12.1788 48 23.04 48H24.96C35.8212 48 41.2517 48 44.6259 44.6259C48 41.2517 48 35.8212 48 24.96L48 23.04C48 12.1788 48 6.74826 44.6259 3.37413C41.2517 0 35.8212 0 24.96 0H23.04C12.1788 0 6.74826 0 3.37413 3.37413ZM8.10081 14.6C8.36081 27.08 14.6007 34.58 25.5407 34.58H26.1609L26.1609 27.44C30.1809 27.84 33.2206 30.78 34.4406 34.58L40.1208 34.58C38.5608 28.9 34.4606 25.76 31.9006 24.56C34.4606 23.08 38.0606 19.48 38.9206 14.6H33.7605C32.6405 18.56 29.3209 22.16 26.1609 22.5V14.6H21.0007V28.44C17.8007 27.64 13.7608 23.76 13.5808 14.6H8.10081Z" fill="white"/>
</svg>
