<svg width="336" height="672" viewBox="0 0 336 672" fill="none" xmlns="http://www.w3.org/2000/svg">
<mask id="mask0_186_1522" style="mask-type:alpha" maskUnits="userSpaceOnUse" x="0" y="0" width="336" height="672">
<rect width="336" height="672" fill="#D9D9D9"/>
</mask>
<g mask="url(#mask0_186_1522)">
<mask id="path-2-inside-1_186_1522" fill="white">
<path d="M470 671.5C470 631.906 462.201 592.701 447.05 556.121C431.898 519.541 409.69 486.304 381.693 458.307C353.696 430.31 320.459 408.102 283.879 392.95C247.299 377.799 208.094 370 168.5 370C128.906 370 89.7006 377.799 53.1209 392.95C16.5413 408.102 -16.6958 430.31 -44.6927 458.307C-72.6896 486.304 -94.8979 519.541 -110.05 556.121C-125.201 592.701 -133 631.906 -133 671.5L168.5 671.5L470 671.5Z"/>
</mask>
<path d="M470 671.5C470 631.906 462.201 592.701 447.05 556.121C431.898 519.541 409.69 486.304 381.693 458.307C353.696 430.31 320.459 408.102 283.879 392.95C247.299 377.799 208.094 370 168.5 370C128.906 370 89.7006 377.799 53.1209 392.95C16.5413 408.102 -16.6958 430.31 -44.6927 458.307C-72.6896 486.304 -94.8979 519.541 -110.05 556.121C-125.201 592.701 -133 631.906 -133 671.5L168.5 671.5L470 671.5Z" fill="#FFBD18" stroke="#EFF2F8" stroke-width="8" mask="url(#path-2-inside-1_186_1522)"/>
<mask id="path-3-inside-2_186_1522" fill="white">
<path d="M470 671.5C470 605.13 448.1 540.614 407.696 487.958C367.292 435.303 310.643 397.451 246.534 380.273C182.425 363.095 114.439 367.551 53.121 392.95C-8.19736 418.349 -59.4214 463.271 -92.6067 520.75L168.5 671.5L470 671.5Z"/>
</mask>
<path d="M470 671.5C470 605.13 448.1 540.614 407.696 487.958C367.292 435.303 310.643 397.451 246.534 380.273C182.425 363.095 114.439 367.551 53.121 392.95C-8.19736 418.349 -59.4214 463.271 -92.6067 520.75L168.5 671.5L470 671.5Z" fill="#2AABEE" stroke="#EFF2F8" stroke-width="8" mask="url(#path-3-inside-2_186_1522)"/>
<mask id="path-4-inside-3_186_1522" fill="white">
<path d="M470 671.5C470 618.576 456.069 566.584 429.607 520.75C403.145 474.916 365.084 436.855 319.25 410.393C273.416 383.931 221.424 370 168.5 370C115.576 370 63.5838 383.931 17.75 410.393L168.5 671.5L470 671.5Z"/>
</mask>
<path d="M470 671.5C470 618.576 456.069 566.584 429.607 520.75C403.145 474.916 365.084 436.855 319.25 410.393C273.416 383.931 221.424 370 168.5 370C115.576 370 63.5838 383.931 17.75 410.393L168.5 671.5L470 671.5Z" fill="#FFE15F" stroke="#EFF2F8" stroke-width="8" mask="url(#path-4-inside-3_186_1522)"/>
<mask id="path-5-inside-4_186_1522" fill="white">
<path d="M470 671.5C470 631.906 462.201 592.701 447.05 556.121C431.898 519.541 409.69 486.304 381.693 458.307C353.696 430.31 320.459 408.102 283.879 392.95C247.299 377.799 208.094 370 168.5 370L168.5 671.5L470 671.5Z"/>
</mask>
<path d="M470 671.5C470 631.906 462.201 592.701 447.05 556.121C431.898 519.541 409.69 486.304 381.693 458.307C353.696 430.31 320.459 408.102 283.879 392.95C247.299 377.799 208.094 370 168.5 370L168.5 671.5L470 671.5Z" fill="#FD94D7" stroke="#EFF2F8" stroke-width="8" mask="url(#path-5-inside-4_186_1522)"/>
<mask id="path-6-inside-5_186_1522" fill="white">
<path d="M470 671.5C470 618.576 456.069 566.584 429.607 520.75C403.145 474.916 365.084 436.855 319.25 410.393L168.5 671.5L470 671.5Z"/>
</mask>
<path d="M470 671.5C470 618.576 456.069 566.584 429.607 520.75C403.145 474.916 365.084 436.855 319.25 410.393L168.5 671.5L470 671.5Z" fill="#5570FF" stroke="#EFF2F8" stroke-width="8" mask="url(#path-6-inside-5_186_1522)"/>
<mask id="path-7-inside-6_186_1522" fill="white">
<path d="M470 671.5C470 618.576 456.069 566.584 429.607 520.75L168.5 671.5L470 671.5Z"/>
</mask>
<path d="M470 671.5C470 618.576 456.069 566.584 429.607 520.75L168.5 671.5L470 671.5Z" fill="#E6FF55" stroke="#EFF2F8" stroke-width="8" mask="url(#path-7-inside-6_186_1522)"/>
</g>
</svg>
