<svg width="32" height="32" viewBox="0 0 32 32" fill="none" xmlns="http://www.w3.org/2000/svg">
<path d="M3.86593 14.2645C12.4969 10.24 23.6653 5.33343 25.2075 4.65417C29.2513 2.87686 30.4923 3.21714 29.8737 7.15393C29.4292 9.98349 28.1475 19.3504 27.1251 25.181C26.5188 28.6387 25.1581 29.0484 23.0195 27.5525C21.991 26.8326 16.7988 23.1929 15.6715 22.3383C14.6429 21.5596 13.2242 20.6225 15.0035 18.7771C15.6369 18.1201 19.7869 13.919 23.0208 10.6497C23.4443 10.2204 22.9121 9.51495 22.4231 9.85916C18.0644 12.923 12.0215 17.1752 11.2523 17.7288C10.0904 18.5651 8.97413 18.9486 6.97135 18.3387C5.45754 17.878 3.97953 17.3283 3.40413 17.1189C1.18774 16.3127 1.71375 15.2683 3.86593 14.2645Z" fill="#1C1C1C"/>
</svg>
