<svg width="165" height="64" viewBox="0 0 165 64" fill="none" xmlns="http://www.w3.org/2000/svg">
<path d="M157.555 26.2222H147.75V42.6667H143.902V22.75H161.402V42.6667H157.555V26.2222Z" fill="#1C1C1C"/>
<path d="M133.918 25.4028L125.641 42.6667H119.016V22.75H122.863V40.0278L131.141 22.75H137.766V42.6667H133.918V25.4028Z" fill="#1C1C1C"/>
<path d="M101.562 34.9861V42.6667H97.7148V22.75H107.104C108.141 22.75 109.076 22.9167 109.909 23.25C110.752 23.5741 111.442 24.0185 111.979 24.5833C112.516 25.1389 112.928 25.7824 113.215 26.5139C113.502 27.2454 113.645 28.0231 113.645 28.8472C113.645 29.9306 113.4 30.9306 112.909 31.8472C112.428 32.7639 111.682 33.5185 110.673 34.1111C109.664 34.6944 108.474 34.9861 107.104 34.9861H101.562ZM101.562 31.4306H106.826C107.706 31.4306 108.414 31.2037 108.951 30.75C109.488 30.287 109.757 29.662 109.757 28.875C109.757 28.0787 109.488 27.4537 108.951 27C108.414 26.537 107.706 26.3056 106.826 26.3056H101.562V31.4306Z" fill="#1C1C1C"/>
<path d="M92.7995 22.75V26.3056H85.7856V42.6667H81.9384V26.3056H74.8828V22.75H92.7995Z" fill="#1C1C1C"/>
<path fill-rule="evenodd" clip-rule="evenodd" d="M29.8408 24.5145L31.8572 0H33.3371L35.1496 22.0355L29.8408 24.5145ZM4.84375 48.6877L34.294 34.768L64 32.185V30.6205L42.9897 28.7936L60.413 16.6075L59.6583 15.3002L32.4799 27.9912L0 30.6628V32.1427L23.3304 34.0617L4.09133 47.3845L4.84375 48.6877ZM29.8655 41.5805L31.815 64H33.3794L35.563 38.8876L29.8655 41.5805Z" fill="#1C1C1C"/>
</svg>
