<svg width="807" height="412" viewBox="0 0 807 412" fill="none" xmlns="http://www.w3.org/2000/svg">
<line x1="0.5" y1="1" x2="0.499982" y2="412" stroke="black"/>
<line x1="806.5" y1="1" x2="806.5" y2="412" stroke="black"/>
<line x1="19.5" y1="1" x2="19.5" y2="412" stroke="black"/>
<line y1="0.5" x2="806" y2="0.5" stroke="black"/>
<line y1="411.5" x2="806" y2="411.5" stroke="black"/>
<line x1="164.5" y1="1" x2="164.5" y2="412" stroke="black"/>
<line x1="290.5" y1="1" x2="290.5" y2="412" stroke="black"/>
<line x1="416.5" y1="1" x2="416.5" y2="412" stroke="black"/>
<line x1="542.5" y1="1" x2="542.5" y2="412" stroke="black"/>
<line x1="667.5" y1="1" x2="667.5" y2="412" stroke="black"/>
<line x1="151.5" y1="1" x2="151.5" y2="412" stroke="black"/>
<line x1="277.5" y1="1" x2="277.5" y2="412" stroke="black"/>
<line x1="277.5" y1="1" x2="277.5" y2="412" stroke="black"/>
<line x1="403.5" y1="1" x2="403.5" y2="412" stroke="black"/>
<line x1="529.5" y1="1" x2="529.5" y2="412" stroke="black"/>
<line x1="655.5" y1="1" x2="655.5" y2="412" stroke="black"/>
<line x1="787.5" y1="1" x2="787.5" y2="412" stroke="black"/>
</svg>
